<?xml version="1.0" standalone="no"?>
<!DOCTYPE svg PUBLIC "-//W3C//DTD SVG 1.1//EN" "http://www.w3.org/Graphics/SVG/1.1/DTD/svg11.dtd" >
<svg xmlns="http://www.w3.org/2000/svg" xmlns:xlink="http://www.w3.org/1999/xlink" version="1.1">
<metadata>
Created by FontForge 20170924 at Tue Apr  9 07:38:49 2013
 By www-data
Copyright (c) 1999, 2006 Nick Curtis. All Rights Reserved. Distributed under the 1001Fonts Free For Commercial Use License (FFC) http://www.1001fonts.com/licenses/ffc.html - PayPal donations in any amount may be made at nicksfonts.com.
</metadata>
<defs>
<font id="IronickNF" horiz-adv-x="362" >
  <font-face 
    font-family="Ironick NF"
    font-weight="400"
    font-stretch="normal"
    units-per-em="1000"
    panose-1="2 1 7 6 8 3 3 2 2 2"
    ascent="808"
    descent="-192"
    x-height="287"
    cap-height="721"
    bbox="-59 -218 2142 888"
    underline-thickness="50"
    underline-position="-80"
    unicode-range="U+0020-2212"
  />
<missing-glyph horiz-adv-x="500" 
 />
    <glyph glyph-name=".notdef" horiz-adv-x="500" 
 />
    <glyph glyph-name=".null" horiz-adv-x="0" 
 />
    <glyph glyph-name="nonmarkingreturn" horiz-adv-x="333" 
 />
    <glyph glyph-name="space" unicode=" " horiz-adv-x="275" 
 />
    <glyph glyph-name="exclam" unicode="!" horiz-adv-x="210" 
d="M155 49q0 -20 -14.5 -34.5t-34.5 -14.5t-34.5 14.5t-14.5 34.5t14.5 34.5t34.5 14.5t34.5 -14.5t14.5 -34.5zM174 651q0 -43 -9 -102q-4 -26 -15.5 -97.5t-16.5 -109t-10.5 -95.5t-5.5 -105h-23q0 100 -29 278q-2 16 -9 55.5t-10.5 61.5t-6.5 54.5t-3 59.5
q0 28 20.5 48.5t48.5 20.5t48.5 -20.5t20.5 -48.5z" />
    <glyph glyph-name="quotedbl" unicode="&#x22;" horiz-adv-x="395" 
d="M219 684q0 -13 -15 -30l-125 -145l-43 30q3 5 32 54.5t52 85.5t33 42q11 6 22 6q17 0 30.5 -13.5t13.5 -29.5zM359 684q0 -13 -15 -30l-125 -145l-43 30q3 5 32 54.5t52 85.5t33 42q11 6 22 6q17 0 30.5 -13.5t13.5 -29.5z" />
    <glyph glyph-name="numbersign" unicode="#" horiz-adv-x="566" 
d="M530 501l-25 -75h-123l-13 -44h127l-23 -75h-125l-89 -312h-75l88 312h-37l-89 -312h-75l88 312h-123l23 75h121l13 44h-123l21 75h122l78 274h75l-77 -274h38l77 274h76l-78 -274h128zM306 426h-38l-13 -44h38z" />
    <glyph glyph-name="dollar" unicode="$" horiz-adv-x="280" 
d="M244 359q0 -38 -28.5 -64t-67.5 -31v-265h-24v264q-45 2 -78 30q14 12 18 14q32 -28 60 -28v82q-5 4 -22 15.5t-25 18.5t-19.5 18.5t-16.5 24t-5 27.5q0 34 26 59t62 31v167h24v-166q50 -2 80 -35l-16 -13q-9 15 -27 24.5t-37 9.5v-81q8 -6 30 -19t33.5 -21.5t22 -25
t10.5 -36.5zM148 281q18 9 18 25q0 12 -18 35v-60zM124 476v61q-22 -10 -22 -26q0 -17 22 -35z" />
    <glyph glyph-name="percent" unicode="%" horiz-adv-x="573" 
d="M537 117q0 -50 -36 -85.5t-86 -35.5q-51 0 -86.5 35t-35.5 86q0 50 36 86.5t86 36.5t86 -36.5t36 -86.5zM467 117q0 21 -15.5 36.5t-36.5 15.5q-22 0 -37 -15t-15 -37t15 -37t37 -15t37 15t15 37zM463 764l-271 -768h-77l270 768h78zM281 643q0 -50 -36 -86t-86 -36
q-51 0 -87 35.5t-36 86.5q0 50 36.5 86t86.5 36t86 -36t36 -86zM210 643q0 21 -15 36.5t-36 15.5q-22 0 -37 -15t-15 -37t15 -37t37 -15t36.5 15t14.5 37z" />
    <glyph glyph-name="ampersand" unicode="&#x26;" horiz-adv-x="704" 
d="M668 333q-40 -43 -101 -43q-36 0 -65 16q10 -31 10 -68q0 -100 -69 -169t-169 -69q-102 0 -170 70t-68 172q0 82 45.5 141.5t124.5 82.5q-68 41 -68 118q0 59 39 98t97 39q47 0 84 -28.5t48 -74.5h-28q-10 35 -39 55.5t-65 20.5q-57 0 -57 -132q0 -26 3 -42t16.5 -30
t37.5 -14v-28q-45 0 -75 -16.5t-45 -48t-20.5 -65.5t-5.5 -81q0 -51 12.5 -96t47 -80.5t86.5 -35.5q81 0 122 68t41 154q0 41 -21 81t-59 40q-25 0 -64 -34l-19 20q41 43 97 43q38 0 65.5 -12.5t41.5 -28t37 -28t53 -12.5q48 0 83 35z" />
    <glyph glyph-name="quotesingle" unicode="'" horiz-adv-x="255" 
d="M219 684q0 -13 -15 -30l-125 -145l-43 30q3 5 32 54.5t52 85.5t33 42q11 6 22 6q17 0 30.5 -13.5t13.5 -29.5z" />
    <glyph glyph-name="parenleft" unicode="(" horiz-adv-x="284" 
d="M248 -216q-52 3 -92.5 44.5t-62 98.5t-35.5 131t-18 129.5t-4 104.5q0 63 4 123.5t17.5 134.5t35.5 129t61 94.5t91 42.5v-84q-41 -6 -70 -60.5t-41.5 -133.5t-17 -138t-4.5 -108t4.5 -105.5t16.5 -134t42 -128.5t73 -53v-87z" />
    <glyph glyph-name="parenright" unicode=")" horiz-adv-x="285" 
d="M249 292q0 -59 -5.5 -121t-20.5 -132.5t-37.5 -124.5t-61.5 -90.5t-88 -38.5v85q35 2 61.5 39t40 86t22 112.5t10.5 105.5t2 79q0 49 -4.5 108t-17 138t-41.5 133.5t-70 60.5v84q63 -4 107.5 -59.5t65 -142t29 -164.5t8.5 -158z" />
    <glyph glyph-name="asterisk" unicode="*" horiz-adv-x="294" 
d="M147 734q10 0 15 -9t5 -19q0 -13 -8 -43.5t-8 -47.5q11 7 42 36t46 29q19 0 19 -17q0 -16 -16 -24.5t-44.5 -15.5t-42.5 -14q10 -6 38 -13.5t46.5 -17t18.5 -24.5q0 -17 -20 -17q-17 0 -46.5 29.5t-40.5 35.5q0 -16 8 -47t8 -44q0 -10 -5 -19t-15 -9t-15.5 9t-5.5 19
q0 13 8 43.5t9 46.5q-9 -6 -40 -35t-47 -29q-20 0 -20 17q0 16 16.5 24.5t45.5 16t42 14.5q-7 4 -36.5 12t-48.5 18t-19 25q0 16 20 16q17 0 46 -28.5t41 -35.5q-1 15 -9 45t-8 45q0 10 5.5 19t15.5 9z" />
    <glyph glyph-name="plus" unicode="+" horiz-adv-x="477" 
d="M441 337h-165v-164h-76v164h-164v76h164v165h76v-165h165v-76z" />
    <glyph glyph-name="comma" unicode="," horiz-adv-x="171" 
d="M51 -59l-5 23q38 5 55 39q-7 -3 -16 -3q-20 0 -34.5 14.5t-14.5 34.5t14.5 34.5t34.5 14.5q23 0 36.5 -16.5t13.5 -40.5q0 -34 -23 -64t-61 -36z" />
    <glyph glyph-name="hyphen" unicode="-" horiz-adv-x="260" 
d="M224 337h-188v76h188v-76z" />
    <glyph glyph-name="period" unicode="." horiz-adv-x="170" 
d="M134 49q0 -20 -14.5 -34.5t-34.5 -14.5t-34.5 14.5t-14.5 34.5t14.5 34.5t34.5 14.5t34.5 -14.5t14.5 -34.5zM134 238q0 -20 -14.5 -34.5t-34.5 -14.5t-34.5 14.5t-14.5 34.5t14.5 34.5t34.5 14.5t34.5 -14.5t14.5 -34.5z" />
    <glyph glyph-name="slash" unicode="/" horiz-adv-x="399" 
d="M114 0h-78l249 715h78z" />
    <glyph glyph-name="zero" unicode="0" horiz-adv-x="616" 
d="M580 359q0 -83 -29 -163t-93 -138t-150 -58q-65 0 -118.5 34t-86 87.5t-50 115.5t-17.5 122t17.5 122t50 116t86 88t118.5 34t118.5 -34t86 -87.5t50 -115.5t17.5 -123zM448 359q0 341 -140 341q-38 0 -66 -27.5t-42 -64.5t-22 -90t-9.5 -87t-1.5 -72t1.5 -72t9.5 -86.5
t22 -89.5t42 -64.5t66 -27.5q140 0 140 340z" />
    <glyph glyph-name="one" unicode="1" horiz-adv-x="193" 
d="M157 0h-121v648l121 71v-719z" />
    <glyph glyph-name="two" unicode="2" horiz-adv-x="437" 
d="M401 532q0 -45 -22.5 -85.5t-60.5 -65.5l-197 -128q-30 -20 -47.5 -57.5t-19.5 -75.5h333v-120h-351v121q0 28 5.5 51t12 38t23.5 33.5t27.5 27.5t37.5 30t40 32q48 40 63.5 84t15.5 96q0 41 -10.5 81.5t-39 73.5t-70.5 33q-40 0 -72 -39l-13 23q55 37 127 37
q89 0 153.5 -52t64.5 -138z" />
    <glyph glyph-name="three" unicode="3" horiz-adv-x="450" 
d="M262 408q74 -21 111.5 -70.5t37.5 -110.5q0 -88 -66.5 -157.5t-168.5 -69.5q-79 0 -140 38l23 36q39 -52 88 -52q59 0 93 62t34 127q0 35 -2 58.5t-9.5 49.5t-21 42t-38 26.5t-59.5 11.5v24q10 -1 29 -1q47 0 74 44.5t27 94.5q0 51 -28 94.5t-77 43.5q-48 0 -79 -47
l-22 30q55 40 128 40q84 0 138 -50t54 -116q0 -47 -31.5 -87t-94.5 -61z" />
    <glyph glyph-name="four" unicode="4" horiz-adv-x="535" 
d="M499 198h-91v-198h-121v198h-251v32l360 492h12v-500h91v-24zM287 222v300l-227 -300h227z" />
    <glyph glyph-name="five" unicode="5" horiz-adv-x="450" 
d="M414 227q0 -96 -67 -161.5t-164 -65.5q-86 0 -147 55l27 23q36 -56 91 -56q46 0 77.5 35.5t43 79t11.5 88.5q0 46 -11.5 90t-42.5 79.5t-78 35.5q-39 0 -73 -34l-23 7l104 296h250v-120h-265l-53 -142q42 19 91 19q96 0 162.5 -67t66.5 -162z" />
    <glyph glyph-name="six" unicode="6" horiz-adv-x="531" 
d="M495 220q0 -91 -62 -155.5t-153 -64.5q-62 0 -110.5 33.5t-76.5 88t-42.5 115.5t-14.5 123q0 56 14.5 116.5t42.5 116.5t77 92.5t110 36.5q74 0 132 -58l-16 -17q-16 20 -41.5 36t-46.5 16q-37 0 -65.5 -36.5t-43 -92t-22 -101t-8.5 -82.5q48 54 119 54q84 0 145.5 -68.5
t61.5 -152.5zM368 217q0 31 -1 50t-6 50t-14.5 49t-29 32t-47.5 14q-14 0 -26 -3t-23.5 -11.5t-17.5 -13.5t-19 -19t-17 -18q0 -36 0.5 -56.5t1.5 -55.5t4.5 -56t8.5 -48.5t13.5 -44t20.5 -32.5t28.5 -23.5t37.5 -7.5q25 0 43.5 22t27 56t12 63t3.5 53z" />
    <glyph glyph-name="seven" unicode="7" horiz-adv-x="427" 
d="M391 723l-146 -723h-120l199 602h-288v121h355z" />
    <glyph glyph-name="eight" unicode="8" horiz-adv-x="470" 
d="M434 202q0 -98 -62.5 -154t-146.5 -56q-78 0 -133.5 51t-55.5 145q0 59 31.5 101t90.5 87q-87 64 -87 164q0 74 48.5 129t122.5 55q65 0 111.5 -41.5t46.5 -115.5q0 -73 -99 -157q58 -30 95.5 -87t37.5 -121zM352 159q0 51 -56.5 103.5t-122.5 90.5q-40 -35 -57 -54.5
t-28 -50.5t-11 -77q0 -70 45.5 -112.5t104.5 -42.5q52 0 88.5 36.5t36.5 106.5zM359 576q0 58 -34 91.5t-79 33.5q-41 0 -70.5 -29.5t-29.5 -83.5q0 -85 132 -163q46 33 63.5 65t17.5 86z" />
    <glyph glyph-name="nine" unicode="9" horiz-adv-x="531" 
d="M251 723q118 0 178 -93t60 -230q0 -98 -28.5 -189t-84.5 -151t-125 -60q-72 0 -132 58l16 17q47 -53 88 -53q37 0 65.5 37t43.5 91.5t22 101.5t8 83q-49 -54 -119 -54q-84 0 -145.5 68t-61.5 153q0 90 62.5 155.5t152.5 65.5zM364 375q0 7 -0.5 36.5t-1 45t-2 46t-5 48.5
t-8.5 44t-14 42t-20 31.5t-27.5 22.5t-36.5 7q-25 0 -43 -22.5t-26.5 -56t-12.5 -62.5t-4 -53q0 -31 0.5 -49.5t5.5 -49.5t14.5 -49t29 -32t47.5 -14q14 0 26 3t24 11.5t17.5 13t19 19t17.5 18.5z" />
    <glyph glyph-name="colon" unicode=":" horiz-adv-x="171" 
d="M134 49q0 -20 -14.5 -34.5t-34.5 -14.5t-34.5 14.5t-14.5 34.5t14.5 34.5t34.5 14.5t34.5 -14.5t14.5 -34.5zM135 238q0 -20 -14.5 -34.5t-34.5 -14.5t-34.5 14.5t-14.5 34.5t14.5 34.5t34.5 14.5t34.5 -14.5t14.5 -34.5z" />
    <glyph glyph-name="semicolon" unicode=";" horiz-adv-x="171" 
d="M135 238q0 -20 -14.5 -34.5t-34.5 -14.5t-34.5 14.5t-14.5 34.5t14.5 34.5t34.5 14.5t34.5 -14.5t14.5 -34.5zM51 -58l-5 23q38 5 55 39q-7 -3 -16 -3q-20 0 -34.5 14.5t-14.5 34.5t14.5 34.5t34.5 14.5q22 0 36 -16.5t14 -40.5q0 -34 -23 -64t-61 -36z" />
    <glyph glyph-name="less" unicode="&#x3c;" horiz-adv-x="447" 
d="M411 111l-375 217v57l375 217v-92l-250 -154l250 -154v-91z" />
    <glyph glyph-name="equal" unicode="=" horiz-adv-x="477" 
d="M441 257h-405v76h405v-76zM441 407h-405v76h405v-76z" />
    <glyph glyph-name="greater" unicode="&#x3e;" horiz-adv-x="447" 
d="M411 328l-375 -217v91l251 154l-251 154v92l375 -217v-57z" />
    <glyph glyph-name="question" unicode="?" horiz-adv-x="370" 
d="M160 49q0 -20 -14.5 -34.5t-34.5 -14.5t-34.5 14.5t-14.5 34.5t14.5 34.5t34.5 14.5t34.5 -14.5t14.5 -34.5zM334 552q0 -40 -21 -77.5t-51 -67.5l-60.5 -60.5t-51.5 -68t-21 -76.5v-62h-25v57q0 63 49.5 187t49.5 197q0 25 -5.5 50t-22.5 47t-42 22q-22 0 -46 -12.5
t-40 -29.5l-11 17q53 45 120 45q73 0 125.5 -48t52.5 -120z" />
    <glyph glyph-name="at" unicode="@" horiz-adv-x="719" 
d="M654 209l21 -13q-51 -79 -133 -120t-172 -41q-87 0 -162 35.5t-123.5 109.5t-48.5 173q0 104 54 187t142 127t191 44q122 0 191 -76.5t69 -185.5q0 -93 -62 -184.5t-136 -91.5q-39 0 -62.5 23.5t-23.5 63.5q-27 -37 -64.5 -63.5t-74.5 -26.5q-38 0 -68 38t-30 85
q0 100 84 191t182 91q28 0 46.5 -19.5t20.5 -48.5l29 66h75l-136 -306q-7 -16 -7 -32q0 -40 32 -40q31 0 64.5 29.5t49.5 53.5q57 81 57 171q0 101 -68 169t-188 68q-85 0 -157.5 -52t-112 -130t-39.5 -159q0 -122 80 -205q79 -82 203 -82q81 0 156.5 41t120.5 110zM444 392
q26 72 26 108q0 51 -44 51q-49 0 -95 -55.5t-71.5 -125.5t-25.5 -123q0 -52 33 -52q51 0 100.5 65t76.5 132z" />
    <glyph glyph-name="A" unicode="A" horiz-adv-x="661" 
d="M625 0h-130l-114 283h-219l-103 -283h-23l218 599l-49 122h130zM373 304l-106 265l-97 -265h203z" />
    <glyph glyph-name="B" unicode="B" horiz-adv-x="493" 
d="M311 302q63 -8 104.5 -46t41.5 -100q0 -70 -52.5 -113t-123.5 -43h-245v721h180q97 0 168 -64t71 -160q0 -70 -38.5 -119.5t-105.5 -75.5zM249 19q36 0 52.5 43.5t16.5 87.5q0 28 -4.5 55t-21 52.5t-43.5 25.5q-9 0 -27 0.5t-27 0.5h-38v-265h92zM320 503
q0 97 -35.5 148.5t-127.5 51.5v-399q91 0 127 51.5t36 147.5z" />
    <glyph glyph-name="C" unicode="C" horiz-adv-x="542" 
d="M506 63q-35 -39 -76 -53.5t-99 -14.5q-93 0 -161.5 54t-100 135t-31.5 175q0 95 31.5 176t100 135t161.5 54q57 0 98.5 -15.5t76.5 -54.5l-19 -20q-32 37 -64.5 53.5t-78.5 16.5q-59 0 -102.5 -51t-63 -127.5t-19.5 -165.5q0 -90 20 -167t63 -128.5t102 -51.5
q80 0 143 71z" />
    <glyph glyph-name="D" unicode="D" horiz-adv-x="598" 
d="M562 360q0 -63 -19 -125.5t-53.5 -115.5t-90 -86t-121.5 -33h-242v720h242q66 0 121.5 -33t90 -86.5t53.5 -116t19 -124.5zM424 360q0 342 -146 342h-121v-682h121q146 0 146 340z" />
    <glyph glyph-name="E" unicode="E" horiz-adv-x="428" 
d="M392 0h-356v721h356v-23h-236v-394h145v-21h-145v-261h236v-22z" />
    <glyph glyph-name="F" unicode="F" horiz-adv-x="428" 
d="M392 698h-236v-394h145v-21h-145v-283h-120v721h356v-23z" />
    <glyph glyph-name="G" unicode="G" horiz-adv-x="562" 
d="M526 614l-18 -28q-32 48 -84 84t-103 36q-50 0 -86.5 -51t-53.5 -128t-17 -167q0 -89 17 -165.5t53.5 -127.5t86.5 -51q36 0 74 18v265h121v-204q-81 -99 -195 -99q-90 0 -156.5 54t-97 135t-30.5 175t30.5 175.5t97 135.5t156.5 54q59 0 112.5 -30.5t92.5 -80.5z" />
    <glyph glyph-name="H" unicode="H" horiz-adv-x="502" 
d="M466 0h-121v282h-188v-282h-121v721h121v-417h188v417h121v-721z" />
    <glyph glyph-name="I" unicode="I" horiz-adv-x="217" 
d="M169 0h-121v721h121v-721z" />
    <glyph glyph-name="J" unicode="J" horiz-adv-x="200" 
d="M164 99q0 -56 -46.5 -97t-103.5 -41q-37 0 -62 13l9 17q20 -10 34 -10q21 0 34.5 14.5t13.5 36.5v689h121v-622z" />
    <glyph glyph-name="K" unicode="K" horiz-adv-x="505" 
d="M469 0h-137l-164 270l-12 -19v-251h-120v721h120v-428l248 428h25l-196 -339z" />
    <glyph glyph-name="L" unicode="L" horiz-adv-x="421" 
d="M385 0h-349v721h121v-698h228v-23z" />
    <glyph glyph-name="M" unicode="M" horiz-adv-x="616" 
d="M580 0h-120v574l-155 -491h-23l-157 409v-492h-22v550l-67 170h130l175 -455q127 410 140 456h99v-721z" />
    <glyph glyph-name="N" unicode="N" horiz-adv-x="467" 
d="M431 0h-23v42l-294 508v-550h-23v591l-75 130h139l253 -439v439h23v-721z" />
    <glyph glyph-name="O" unicode="O" horiz-adv-x="689" 
d="M629 359q0 -63 -19 -125.5t-53.5 -115t-90 -85.5t-121.5 -33q-88 0 -155 56.5t-98.5 136.5t-31.5 166q0 85 31.5 166t98.5 138t155 57q66 0 121.5 -33.5t90 -86.5t53.5 -116t19 -125zM491 360q0 340 -146 340q-33 0 -59 -18t-41 -49.5t-25.5 -65.5t-14.5 -77t-5.5 -71
t-1.5 -59t1.5 -59t5.5 -71t14.5 -77t25.5 -65.5t41 -49.5t59 -18q146 0 146 340z" />
    <glyph glyph-name="P" unicode="P" horiz-adv-x="494" 
d="M458 501q0 -93 -65 -157t-158 -64h-78v-280h-121v721h199q92 0 157.5 -64t65.5 -156zM317 502q0 35 -5.5 67t-17.5 63t-35.5 50t-55.5 19h-46v-400h46q33 0 56.5 19.5t35.5 51t17 64t5 66.5z" />
    <glyph glyph-name="Q" unicode="Q" horiz-adv-x="689" 
d="M629 359q0 -63 -19 -125.5t-53.5 -115t-90 -85.5t-121.5 -33q-14 0 -42 2l-99 -100l-48 56l90 63q-89 42 -137.5 137.5t-48.5 200.5q0 85 31.5 166t98.5 138t155 57q66 0 121.5 -33.5t90 -86.5t53.5 -116t19 -125zM492 360q0 31 -1.5 59t-5.5 71t-14.5 77t-25.5 65.5
t-41 49.5t-59 18t-59 -18t-41 -49.5t-25.5 -65.5t-14.5 -77t-5.5 -71t-1.5 -59q0 -246 80 -316l112 78l15 -18l-83 -82q6 -2 17 -2q153 0 153 340z" />
    <glyph glyph-name="R" unicode="R" horiz-adv-x="500" 
d="M464 0h-119v224q0 22 -12.5 39t-33.5 17h-142v-280h-121v721h199q92 0 158 -64t66 -156q0 -64 -34.5 -117.5t-92.5 -82.5q48 -1 90 -26t42 -69v-206zM317 502q0 35 -5.5 67t-17.5 63t-35.5 50t-55.5 19h-46v-400h46q33 0 56.5 19.5t35.5 51t17 64t5 66.5z" />
    <glyph glyph-name="S" unicode="S" horiz-adv-x="450" 
d="M414 197q0 -83 -57 -141t-140 -58q-57 0 -108 18q-3 1 -21 9t-28 10l20 43q24 -29 65 -45.5t81 -16.5q48 0 74 24.5t26 71.5q0 49 -30 90.5t-72.5 72.5t-85 63.5t-72.5 77t-30 97.5q0 91 65 151t157 60q71 0 129 -40l-28 -32q-38 52 -118 52q-54 0 -93 -25.5t-39 -76.5
q0 -34 17 -64t43.5 -53.5t59 -46.5t65.5 -47t59.5 -51t43.5 -63.5t17 -79.5z" />
    <glyph glyph-name="T" unicode="T" horiz-adv-x="501" 
d="M465 698h-154v-698h-121v698h-154v23h429v-23z" />
    <glyph glyph-name="U" unicode="U" horiz-adv-x="449" 
d="M413 180q0 -78 -55.5 -132.5t-133.5 -54.5q-79 0 -133.5 54t-54.5 133v540h122v-556q0 -47 34 -81.5t81 -34.5q48 0 82 34t34 82v556h24v-540z" />
    <glyph glyph-name="V" unicode="V" horiz-adv-x="568" 
d="M532 721l-229 -721h-27l-240 721h127l177 -518l168 518h24z" />
    <glyph glyph-name="W" unicode="W" horiz-adv-x="731" 
d="M695 722l-230 -722h-26l-83 312l-99 -312h-27l-194 721h127l131 -518l49 154l-98 365h127l131 -519l167 519h25z" />
    <glyph glyph-name="X" unicode="X" horiz-adv-x="525" 
d="M489 721l-186 -322l169 -399h-130l-114 268l-156 -268h-27l171 297l-180 424h130l125 -294l169 294h29z" />
    <glyph glyph-name="Y" unicode="Y" horiz-adv-x="505" 
d="M469 721l-176 -477v-244h-111v246l-146 475h124l133 -414l150 414h26z" />
    <glyph glyph-name="Z" unicode="Z" horiz-adv-x="464" 
d="M428 0h-392v21l247 677h-224v23h353v-20l-249 -677h265v-24z" />
    <glyph glyph-name="bracketleft" unicode="[" horiz-adv-x="284" 
d="M248 -195h-212v990h206v-39h-91v-912h97v-39z" />
    <glyph glyph-name="backslash" unicode="\" horiz-adv-x="399" 
d="M363 0h-78l-249 715h78z" />
    <glyph glyph-name="bracketright" unicode="]" horiz-adv-x="284" 
d="M248 -195h-212v39h97v912h-91v39h206v-990z" />
    <glyph glyph-name="asciicircum" unicode="^" horiz-adv-x="385" 
d="M349 647h-95l-62 64l-61 -64h-95l142 152h29z" />
    <glyph glyph-name="underscore" unicode="_" horiz-adv-x="500" 
d="M500 -78h-500v51h500v-51z" />
    <glyph glyph-name="grave" unicode="`" horiz-adv-x="307" 
d="M56 383q0 15 10.5 25t24.5 10q15 0 22 -6l141 -112h-30l-142 50q-26 7 -26 33z" />
    <glyph glyph-name="a" unicode="a" horiz-adv-x="355" 
d="M319 0h-93v15q-32 -19 -68 -19q-50 0 -86 24t-36 71q0 46 35.5 70.5t83.5 24.5q41 0 71 -18q0 6 0.5 19t0.5 18q0 64 -42 64q-20 0 -54 -13l-8 15q26 16 80 16q48 0 82 -17t34 -53v-217zM226 36v109q-21 22 -44 22t-39 -22t-16 -54t16.5 -54.5t39.5 -22.5q22 0 43 22z
" />
    <glyph glyph-name="b" unicode="b" horiz-adv-x="409" 
d="M373 144q0 -62 -50.5 -102.5t-114.5 -40.5q-39 0 -79 19v-20h-93v715h93v-445q33 18 79 18q64 0 114.5 -40.5t50.5 -103.5zM270 145q0 58 -22.5 92t-58.5 34q-30 0 -60 -23v-207q32 -24 62 -24q36 0 57.5 35.5t21.5 92.5z" />
    <glyph glyph-name="c" unicode="c" horiz-adv-x="346" 
d="M310 244l-14 -16q-43 44 -82 44q-34 0 -55.5 -33t-21.5 -91q0 -60 23 -94.5t59 -34.5t74 35l15 -14q-38 -41 -105 -41q-65 0 -116 40.5t-51 103.5q0 64 51 105t116 41q68 0 107 -45z" />
    <glyph glyph-name="d" unicode="d" horiz-adv-x="409" 
d="M373 0h-93v20q-40 -19 -80 -19q-64 0 -114 40t-50 103t50 103.5t114 40.5q47 0 80 -18v445h93v-715zM280 41v207q-35 22 -67 22q-37 0 -58.5 -31t-21.5 -88q0 -62 21.5 -97t59.5 -35q29 0 66 22z" />
    <glyph glyph-name="e" unicode="e" horiz-adv-x="405" 
d="M369 146h-229q0 -57 32 -90t74 -33q55 0 81 45h23q-43 -71 -140 -71q-69 0 -121.5 40t-52.5 108q0 67 49.5 105.5t119.5 38.5q68 0 116 -38t48 -105zM266 170q-1 24 -2 37t-6.5 31.5t-19 27.5t-34.5 9q-22 0 -35.5 -9t-19 -27.5t-7 -32t-2.5 -36.5h126z" />
    <glyph glyph-name="f" unicode="f" horiz-adv-x="282" 
d="M246 263h-71v-263h-93v263h-46v24h46v330q0 41 28 69t69 28q36 0 65 -26l-16 -13q-6 16 -24 16q-12 0 -20.5 -8.5t-8.5 -20.5v-375h71v-24z" />
    <glyph glyph-name="g" unicode="g" horiz-adv-x="400" 
d="M364 -74q0 -20 -16 -35t-41 -21.5t-46.5 -9.5t-40.5 -3q-35 0 -52 11l8 14q32 -9 46 -9q17 0 33 8t16 23v109q-29 -13 -69 -13q-65 0 -115.5 40.5t-50.5 103.5t51 103.5t115 40.5q42 0 69 -14v13h93v-361zM271 37v211q-26 23 -54 23q-35 0 -59 -34t-24 -88
q0 -60 20 -95.5t58 -35.5q27 0 59 19z" />
    <glyph glyph-name="h" unicode="h" 
d="M326 0h-91v205q0 30 -16 46.5t-38 16.5q-21 0 -36 -15t-15 -41v-212h-94v714h94v-456q28 37 82 37q45 0 79.5 -27t34.5 -70v-198z" />
    <glyph glyph-name="i" unicode="i" horiz-adv-x="175" 
d="M129 0h-93v287h93v-287zM139 427l-53 -114l-50 114h103z" />
    <glyph glyph-name="j" unicode="j" horiz-adv-x="172" 
d="M133 -58q0 -40 -28 -68t-69 -28q-36 0 -64 26l15 12q11 -15 25 -15q11 0 19.5 9t8.5 20v389h93v-345zM149 427l-53 -114l-59 114h112z" />
    <glyph glyph-name="k" unicode="k" horiz-adv-x="389" 
d="M379 -22l-69 -62l-177 199l-4 -5v-110h-93v714h93v-571l158 144h34l-118 -109z" />
    <glyph glyph-name="l" unicode="l" horiz-adv-x="165" 
d="M129 0h-93v714h93v-714z" />
    <glyph glyph-name="m" unicode="m" horiz-adv-x="536" 
d="M500 0h-91v201q0 31 -13.5 48.5t-31.5 17.5q-16 0 -30 -14.5t-20 -40.5v-212h-93v217q0 25 -11 38t-27 13q-20 0 -37 -17t-17 -43v-208h-93v287h93v-34q33 42 90 42q62 0 88 -52q31 52 97 52q40 0 68 -24.5t28 -69.5v-201z" />
    <glyph glyph-name="n" unicode="n" 
d="M326 0h-91v219q0 25 -12.5 38t-31.5 13q-23 0 -42 -17t-19 -41v-213h-94v288h94v-29q25 37 85 37q44 0 77.5 -22.5t33.5 -60.5v-212z" />
    <glyph glyph-name="o" unicode="o" horiz-adv-x="412" 
d="M376 142q0 -63 -51.5 -104.5t-117.5 -41.5t-118.5 41.5t-52.5 104.5q0 69 51 108.5t120 39.5t119 -39t50 -109zM270 143q0 58 -21 94t-48 36q-25 0 -42.5 -31t-17.5 -84q0 -61 22.5 -100.5t49.5 -39.5q23 0 40 33.5t17 91.5z" />
    <glyph glyph-name="p" unicode="p" horiz-adv-x="398" 
d="M362 144q0 -56 -44.5 -100t-100.5 -44q-54 0 -88 35v-197h-93v449h93v-34q31 35 71 35q64 0 113 -40.5t49 -103.5zM202 18q27 0 43 39.5t16 91.5q0 51 -15.5 87t-43.5 36q-39 0 -56 -29t-17 -71v-33q0 -121 73 -121z" />
    <glyph glyph-name="q" unicode="q" horiz-adv-x="398" 
d="M362 -162h-93v197q-34 -35 -85 -35q-58 0 -103 43.5t-45 100.5q0 63 49 103.5t113 40.5q40 0 71 -35v34h93v-449zM269 172q0 42 -17 71t-56 29q-28 0 -43.5 -36t-15.5 -86q0 -52 16 -92t43 -40q73 0 73 120v34z" />
    <glyph glyph-name="r" unicode="r" horiz-adv-x="246" 
d="M210 260q-9 4 -23 4q-20 0 -39 -10t-19 -28v-226h-93v287h93v-22q22 22 58 22q13 0 23 -3v-24z" />
    <glyph glyph-name="s" unicode="s" horiz-adv-x="280" 
d="M244 92q0 -45 -34 -70t-80 -25q-51 0 -86 29q2 2 5.5 6t7.5 6q44 -28 78 -28q29 0 29 31q0 18 -20 37t-44 33.5t-44 38t-20 49.5q0 41 32.5 66t76.5 25q51 0 83 -34l-15 -14q-9 17 -30 25.5t-42 8.5q-40 0 -40 -34q0 -16 22.5 -32.5t49 -30t49 -37t22.5 -50.5z" />
    <glyph glyph-name="t" unicode="t" horiz-adv-x="282" 
d="M246 264h-71v-213q0 -13 9 -20.5t22 -7.5q14 0 22 15l16 -13q-28 -25 -65 -25q-41 0 -69 27.5t-28 68.5v168h-46v23h46v232h93v-232h71v-23z" />
    <glyph glyph-name="u" unicode="u" 
d="M326 0h-93v29q-34 -37 -96 -37q-42 0 -71.5 21.5t-29.5 61.5v212h91v-219q0 -26 13 -39.5t32 -13.5q23 0 42 16.5t19 42.5v213h93v-287z" />
    <glyph glyph-name="v" unicode="v" horiz-adv-x="375" 
d="M339 287l-145 -289h-13l-145 289h105l86 -170l86 170h26z" />
    <glyph glyph-name="w" unicode="w" horiz-adv-x="502" 
d="M466 287l-120 -288h-13l-76 177l-89 -178h-13l-119 289h104l61 -170l44 88l-36 82h104l66 -170l61 170h26z" />
    <glyph glyph-name="x" unicode="x" horiz-adv-x="370" 
d="M334 287l-87 -134l84 -153h-106l-74 135l-88 -135h-27l102 158l-72 129h106l62 -111l73 111h27z" />
    <glyph glyph-name="y" unicode="y" horiz-adv-x="375" 
d="M339 287l-225 -461l-22 10l84 172l-140 279h105l86 -170l86 170h26z" />
    <glyph glyph-name="z" unicode="z" horiz-adv-x="344" 
d="M308 287l-152 -265h140v-22h-260l151 264h-135v23h256z" />
    <glyph glyph-name="braceleft" unicode="{" horiz-adv-x="249" 
d="M213 747q-41 -3 -74.5 -27.5t-33.5 -63.5q0 -43 30.5 -124.5t30.5 -125.5q0 -60 -31 -104q31 -42 31 -105q0 -45 -30.5 -128t-30.5 -128q0 -38 34.5 -61.5t72.5 -23.5l-23 -74q-153 31 -153 161q0 46 30 131.5t30 132.5q0 27 -16 50.5t-41 28.5l2 30q27 3 41 29t14 56
q0 45 -30 129t-30 129q0 70 40 106.5t113 52.5z" />
    <glyph glyph-name="bar" unicode="|" horiz-adv-x="75" 
 />
    <glyph glyph-name="braceright" unicode="}" horiz-adv-x="248" 
d="M212 -58q0 -130 -153 -159l-23 72q40 1 73.5 26.5t33.5 64.5q0 44 -30.5 125.5t-30.5 125.5q0 63 31 105q-31 44 -31 104q0 43 30.5 124.5t30.5 125.5q0 39 -33 63.5t-74 27.5l24 71q73 -16 112.5 -52.5t39.5 -106.5q0 -45 -30 -129t-30 -129q0 -30 14 -56t41 -29l2 -30
q-27 -6 -42 -31t-15 -55q0 -45 30 -129t30 -129z" />
    <glyph glyph-name="asciitilde" unicode="~" horiz-adv-x="554" 
d="M518 371q-65 -79 -156 -79q-38 0 -91 34.5t-83 34.5q-58 0 -97 -50l-55 48q60 75 153 75q40 0 92 -33.5t82 -33.5q55 0 97 50z" />
    <glyph glyph-name="uni00A0" unicode="&#xa0;" horiz-adv-x="275" 
 />
    <glyph glyph-name="exclamdown" unicode="&#xa1;" horiz-adv-x="210" 
d="M174 -115q0 -27 -21 -47.5t-48 -20.5q-28 0 -48.5 20.5t-20.5 48.5q0 27 3 59.5t6.5 53.5t10.5 62t9 55q29 178 29 278h23q0 -95 28 -277q3 -17 12 -70.5t13 -90t4 -71.5zM155 487q0 -19 -14.5 -34t-34.5 -15t-34.5 15t-14.5 34q0 20 14.5 34.5t34.5 14.5t34.5 -14.5
t14.5 -34.5z" />
    <glyph glyph-name="cent" unicode="&#xa2;" horiz-adv-x="343" 
d="M307 509l-14 -16q-35 42 -86 44v-253q55 7 83 35l15 -12q-35 -39 -98 -41v-267h-23v267q-60 5 -104 45t-44 98q0 59 44 99t104 45v170h23v-170q62 -2 100 -44zM184 286v249q-47 -10 -47 -115q0 -44 10 -86t37 -48z" />
    <glyph glyph-name="sterling" unicode="&#xa3;" horiz-adv-x="461" 
d="M425 694l-31 -42q-34 47 -86 47q-56 0 -89 -48.5t-33 -107.5q0 -42 25 -116.5t27 -111.5h87v-23q-43 -1 -75 -1q-10 0 -10 -1q0 -79 -29.5 -154t-87.5 -114h268v-23h-345v24q46 0 69 34t23 83q0 70 -21 152h-81v23h75q-8 24 -14 77.5t-6 85.5q0 102 61.5 173t162.5 71
q60 0 110 -28z" />
    <glyph glyph-name="currency" unicode="&#xa4;" horiz-adv-x="569" 
d="M533 72q-63 -69 -175 -69q-79 0 -145 47.5t-105 122.5h-69l14 23h44q-11 24 -19 52h-42l13 23h23q-10 62 -10 93q0 87 34 168t103.5 136.5t158.5 55.5q112 0 175 -69l-20 -21q-33 37 -64.5 53.5t-77.5 16.5q-52 0 -89 -33t-55.5 -87.5t-26.5 -108.5t-8 -111q0 -41 5 -93
h256l-13 -23h-240q7 -38 10 -52h200l-14 -23h-180q19 -64 57.5 -107.5t97.5 -43.5q47 0 79.5 16t64.5 52z" />
    <glyph glyph-name="yen" unicode="&#xa5;" horiz-adv-x="505" 
d="M469 719l-165 -448h78v-23h-87q-3 -4 -3 -25q0 -7 0.5 -16.5t0.5 -10.5h89v-23h-89v-174h-112v174h-88v23h88v46l-1 3l-1 3h-86v23h79l-136 448h124l133 -413l150 413h26z" />
    <glyph glyph-name="section" unicode="&#xa7;" horiz-adv-x="2170" 
d="M27 750h128v-750h-128v750zM2020 750h122v-750h-122v750zM1249 468q15 40 40.5 74t60 58.5t76 38t86.5 13.5t86.5 -13.5t76 -38t60 -58.5t40.5 -74h123q-12 50 -36.5 94.5t-59 81t-77 63.5t-91.5 43h-244q-49 -16 -91.5 -43t-77 -63.5t-59 -81t-36.5 -94.5h123zM1775 276
q-15 -40 -40.5 -74t-60 -58.5t-76 -38t-86.5 -13.5t-86.5 13.5t-76 38t-60 58.5t-40.5 74h-123q24 -96 89.5 -168.5t156.5 -107.5h281q91 35 156 107.5t89 168.5h-123zM923 276q-15 -40 -41 -74t-60.5 -58.5t-76 -38t-86.5 -13.5t-86 13.5t-75.5 38t-60.5 58.5t-41 74h-122
q12 -48 34.5 -90.5t54 -78t71.5 -63t85 -44.5h281q45 17 85 44.5t71.5 63t54 78t34.5 90.5h-122zM397 468q15 40 40.5 74t60 58.5t75.5 38t86 13.5t86.5 -13.5t76 -38t60 -58.5t40.5 -74h123q-12 50 -36.5 94.5t-59 81t-77 63.5t-90.5 43h-245q-48 -16 -90.5 -43t-77 -63.5
t-59 -81t-36.5 -94.5h123zM274 448h95v-30h-56v-33h50v-32h-51v-58h-38v153zM1006 448h44l71 -102v102h38v-153h-35l-81 104v-104h-37v153zM1457 448h115v-38h-32v-115h-51v116h-32v37zM662 456q-14 0 -29.5 -4t-28.5 -14t-22 -28t-9 -46t12.5 -44t27.5 -24q18 -10 41 -12
q24 2 43 12q17 8 30.5 25t13.5 49t-12.5 49t-27.5 25q-18 10 -39 12zM655 322q-12 2 -22 7q-8 5 -14.5 13.5t-6.5 24.5q0 15 4.5 25t11.5 16t15.5 8t15.5 2q11 -1 21 -6q8 -5 15 -15t7 -27q0 -18 -7.5 -27.5t-16.5 -14.5q-11 -5 -23 -6zM1790 333q8 -4 18.5 -7t23.5 -3
q10 0 17.5 3t7.5 12q0 10 -11.5 14t-25 8.5t-24.5 13.5t-11 30q0 13 6 22t15.5 14.5t21.5 7.5t23 2q24 0 39 -6l-3 -31q-14 7 -33 7q-8 0 -17.5 -2t-9.5 -12q0 -9 11 -12.5t24.5 -8t24.5 -13t11 -29.5q0 -29 -20 -39t-46 -10q-11 0 -23 1t-23 5z" />
    <glyph glyph-name="dieresis" unicode="&#xa8;" horiz-adv-x="239" 
d="M36 341q0 16 11 27t27 11t27 -11t11 -27t-11 -27t-27 -11t-27 11t-11 27zM127 339q0 16 11 27t27 11t27 -11t11 -27t-11 -27t-27 -11t-27 11t-11 27z" />
    <glyph glyph-name="copyright" unicode="&#xa9;" horiz-adv-x="805" 
d="M769 364q0 -151 -108 -258t-259 -107q-152 0 -259 106.5t-107 258.5t107 259.5t259 107.5q151 0 259 -108t108 -259zM700 364q0 123 -87.5 211t-210.5 88q-124 0 -211 -87.5t-87 -211.5t87 -211t211 -87q123 0 210.5 87t87.5 211zM581 283q-14 -60 -61.5 -96t-109.5 -36
q-95 0 -147.5 55t-52.5 151q0 98 51 153.5t148 55.5q59 0 103 -29.5t61 -84.5l-58 -15q-19 39 -45.5 57t-67.5 18q-63 0 -94.5 -43.5t-31.5 -109.5q0 -151 128 -151q41 0 75 26.5t42 66.5z" />
    <glyph glyph-name="ordfeminine" unicode="&#xaa;" horiz-adv-x="230" 
d="M194 482h-158v66h158v-66zM188 562h-49v11q-15 -9 -35 -9q-27 0 -46 12.5t-19 36.5q0 25 18.5 37.5t44.5 12.5q20 0 37 -9q0 2 0.5 8t0.5 8q0 19 -5 27t-22 8q-12 0 -24 -5l-4 8q12 6 33 6q23 0 46.5 -9t23.5 -28v-115zM139 584v58q-12 12 -25 12q-26 0 -26 -41
q0 -15 6.5 -27.5t20.5 -12.5q13 0 24 11z" />
    <glyph glyph-name="guillemotleft" unicode="&#xab;" horiz-adv-x="405" 
d="M209 197l-173 177l173 170v-101l-72 -71l72 -73v-102zM369 197l-172 177l172 170v-101l-72 -71l72 -73v-102z" />
    <glyph glyph-name="logicalnot" unicode="&#xac;" horiz-adv-x="449" 
d="M413 236h-46v116h-331v46h377v-162z" />
    <glyph glyph-name="registered" unicode="&#xae;" horiz-adv-x="388" 
d="M36 573q0 65 46.5 111.5t111.5 46.5q64 0 111 -47t47 -111q0 -65 -46.5 -111.5t-111.5 -46.5q-66 0 -112 46t-46 112zM59 573q0 -57 39 -96t96 -39q56 0 95.5 39.5t39.5 95.5q0 55 -40 95t-95 40q-56 0 -95.5 -39.5t-39.5 -95.5zM135 489v176h63q27 0 50 -12t23 -36
q0 -37 -39 -49l39 -79h-34l-37 73h-33v-73h-32zM190 642h-23v-56h34q31 0 31 27q0 14 -13.5 21.5t-28.5 7.5z" />
    <glyph glyph-name="macron" unicode="&#xaf;" horiz-adv-x="221" 
d="M185 299h-149v31h149v-31z" />
    <glyph glyph-name="degree" unicode="&#xb0;" horiz-adv-x="287" 
d="M251 643q0 -44 -31.5 -75.5t-75.5 -31.5q-45 0 -76.5 31t-31.5 76q0 44 32 75.5t76 31.5t75.5 -32t31.5 -75zM210 643q0 27 -19.5 47t-46.5 20q-28 0 -47.5 -19t-19.5 -48t19.5 -48t47.5 -19t47 19.5t19 47.5z" />
    <glyph glyph-name="plusminus" unicode="&#xb1;" horiz-adv-x="477" 
d="M441 67h-405v76h405v-76zM441 337h-165v-164h-76v164h-164v76h164v165h76v-165h165v-76z" />
    <glyph glyph-name="twosuperior" unicode="&#xb2;" horiz-adv-x="236" 
d="M202 633q0 -45 -40 -70l-89 -56q-23 -15 -25 -52h147v-62h-163v58q0 33 17.5 53.5t57.5 49.5q25 18 25 70q0 29 -12.5 54.5t-36.5 25.5q-17 0 -33 -20l-11 18q28 18 62 18q41 0 71 -23.5t30 -63.5z" />
    <glyph glyph-name="threesuperior" unicode="&#xb3;" horiz-adv-x="241" 
d="M207 484q0 -38 -34.5 -65.5t-74.5 -27.5q-36 0 -67 19l15 24q22 -26 39 -26q24 0 38.5 26.5t14.5 52.5q0 36 -12 57.5t-46 22.5v19h16q19 0 30.5 18t11.5 39t-12 39t-32 18q-18 0 -34 -23l-15 20q30 21 61 21q32 0 61.5 -21.5t29.5 -51.5q0 -52 -49 -70q59 -25 59 -91z
" />
    <glyph glyph-name="acute" unicode="&#xb4;" horiz-adv-x="307" 
d="M258 382q0 -25 -26 -32l-141 -50h-30l140 111q10 7 23 7q14 0 24 -10.5t10 -25.5z" />
    <glyph glyph-name="mu" unicode="&#xb5;" horiz-adv-x="503" 
d="M467 461l-68 -319q-1 -6 -1 -18q0 -45 58 -58l-32 -72q-57 13 -84 50q-54 -47 -117 -47q-39 0 -74 22l-34 -167h-79l132 612l75 -3q-6 -29 -18 -82t-21.5 -96.5t-17.5 -82.5q-10 -55 -10 -67q0 -27 14 -43.5t40 -16.5q27 0 55.5 20t34.5 45l71 323h76z" />
    <glyph glyph-name="mu" unicode="&#x3bc;" horiz-adv-x="503" 
d="M467 461l-68 -319q-1 -6 -1 -18q0 -45 58 -58l-32 -72q-57 13 -84 50q-54 -47 -117 -47q-39 0 -74 22l-34 -167h-79l132 612l75 -3q-6 -29 -18 -82t-21.5 -96.5t-17.5 -82.5q-10 -55 -10 -67q0 -27 14 -43.5t40 -16.5q27 0 55.5 20t34.5 45l71 323h76z" />
    <glyph glyph-name="paragraph" unicode="&#xb6;" horiz-adv-x="572" 
d="M536 -126h-356v23h101v473h-70q-73 0 -124 51.5t-51 124.5t51 124t124 51h325v-23h-103v-801h103v-23zM410 -103v801h-106v-801h106zM281 393v305h-70q-64 0 -108.5 -44t-44.5 -108t44 -108.5t109 -44.5h70z" />
    <glyph glyph-name="periodcentered" unicode="&#xb7;" horiz-adv-x="171" 
d="M36 382q0 21 14 35.5t35 14.5t35.5 -14.5t14.5 -35.5t-14.5 -35t-35.5 -14t-35 14t-14 35z" />
    <glyph glyph-name="cedilla" unicode="&#xb8;" horiz-adv-x="212" 
d="M170 -86q0 -63 -126 -67l7 21q1 0 5.5 0.5t6.5 0.5t6 1l6 1.5l6 1.5t6 2.5t4.5 3.5t3.5 4t2 5t1 7q0 18 -30 18l-13 24l53 81h31l-33 -49q30 -4 47 -19t17 -36z" />
    <glyph glyph-name="onesuperior" unicode="&#xb9;" horiz-adv-x="126" 
d="M93 397h-61v293l61 35v-328z" />
    <glyph glyph-name="ordmasculine" unicode="&#xba;" horiz-adv-x="250" 
d="M207 480h-168v76h168v-76zM214 639q0 -34 -27 -55.5t-62 -21.5t-62 21.5t-27 55.5t27 56t62 22t62 -22t27 -56zM159 640q0 68 -33 68q-35 0 -35 -62q0 -75 35 -75q33 0 33 69z" />
    <glyph glyph-name="guillemotright" unicode="&#xbb;" horiz-adv-x="406" 
d="M210 374l-174 -176v101l72 73l-72 71v101zM370 374l-174 -176v101l72 73l-72 71v101z" />
    <glyph glyph-name="onequarter" unicode="&#xbc;" horiz-adv-x="631" 
d="M133 250h-81v435l81 48v-483zM89 0h-53l507 719h52zM572 134h-61v-134h-81v134h-168v21l241 330h8v-335h61v-16zM430 150v201l-152 -201h152z" />
    <glyph glyph-name="onehalf" unicode="&#xbd;" horiz-adv-x="721" 
d="M685 357q0 -66 -56 -101l-136 -85q-38 -23 -40 -90h223v-81h-235v81q0 34 15 61.5t32 42.5t52 41q7 5 11 8q40 29 40 111q0 28 -7 55t-26 49t-47 22q-26 0 -48 -26l-9 15q37 25 85 25q59 0 102.5 -35t43.5 -93zM133 250h-81v435l81 48v-483zM89 0h-53l507 719h52z" />
    <glyph glyph-name="threequarters" unicode="&#xbe;" horiz-adv-x="713" 
d="M289 373q0 -48 -51 -95q-44 -41 -108 -41q-53 0 -94 25l15 25q28 -35 59 -35q40 0 63 41.5t23 84.5q0 51 -15 89q-13 37 -73 37v16h20q31 0 49.5 30t18.5 63q0 34 -19 63t-52 29q-32 0 -53 -31l-14 20q36 27 85 27q46 0 88 -30.5t42 -74.5q0 -80 -86 -106
q102 -33 102 -137zM171 0h-53l507 719h52zM654 134h-61v-134h-81v134h-168v21l241 330h8v-335h61v-16zM512 150v201l-152 -201h152z" />
    <glyph glyph-name="questiondown" unicode="&#xbf;" horiz-adv-x="370" 
d="M334 -141q-55 -44 -120 -44q-72 0 -125 48.5t-53 119.5q0 39 21 76.5t51 68t60.5 60.5t51.5 67.5t21 76.5v62h25v-57q0 -53 -25 -119.5t-50 -136t-25 -128.5q0 -41 17.5 -79.5t53.5 -38.5q22 0 46 12.5t40 29.5zM308 485q0 -19 -15 -34t-34 -15t-34 15t-15 34
q0 20 14.5 34.5t34.5 14.5t34.5 -14.5t14.5 -34.5z" />
    <glyph glyph-name="Agrave" unicode="&#xc0;" horiz-adv-x="661" 
d="M625 0h-130l-114 283h-219l-103 -283h-23l218 599l-49 122h130zM373 304l-106 265l-97 -265h203zM168 817q0 15 10.5 25t24.5 10q15 0 22 -6l141 -112h-30l-142 50q-26 7 -26 33z" />
    <glyph glyph-name="Aacute" unicode="&#xc1;" horiz-adv-x="661" 
d="M625 0h-130l-114 283h-219l-103 -283h-23l218 599l-49 122h130zM373 304l-106 265l-97 -265h203zM435 816q0 -25 -26 -32l-141 -50h-30l140 111q10 7 23 7q14 0 24 -10.5t10 -25.5z" />
    <glyph glyph-name="Acircumflex" unicode="&#xc2;" horiz-adv-x="661" 
d="M625 0h-130l-114 283h-219l-103 -283h-23l218 599l-49 122h130zM373 304l-106 265l-97 -265h203zM257 813h58l90 -79h-33l-86 34l-85 -34h-33z" />
    <glyph glyph-name="Atilde" unicode="&#xc3;" horiz-adv-x="661" 
d="M625 0h-130l-114 283h-219l-103 -283h-23l218 599l-49 122h130zM373 304l-106 265l-97 -265h203zM388 815l17 -8q-11 -33 -25.5 -50.5t-43.5 -17.5q-21 0 -52.5 14.5t-48.5 14.5q-14 0 -21.5 -1.5t-14.5 -8t-13 -20.5l-19 7q26 73 71 73q20 0 52 -16t51 -16q35 0 47 29z
" />
    <glyph glyph-name="Adieresis" unicode="&#xc4;" horiz-adv-x="661" 
d="M625 0h-130l-114 283h-219l-103 -283h-23l218 599l-49 122h130zM373 304l-106 265l-97 -265h203zM210 775q0 16 11 27t27 11t27 -11t11 -27t-11 -27t-27 -11t-27 11t-11 27zM301 773q0 16 11 27t27 11t27 -11t11 -27t-11 -27t-27 -11t-27 11t-11 27z" />
    <glyph glyph-name="Aring" unicode="&#xc5;" horiz-adv-x="661" 
d="M625 0h-130l-114 283h-219l-103 -283h-23l218 599l-49 122h130zM373 304l-106 265l-97 -265h203zM356 811q0 -32 -22.5 -54.5t-54.5 -22.5t-55 22.5t-23 54.5t23 54.5t55 22.5q31 0 54 -23t23 -54zM327 811q0 20 -14.5 34.5t-33.5 14.5q-20 0 -34 -14t-14 -35
q0 -20 14 -34t34 -14t34 14t14 34z" />
    <glyph glyph-name="AE" unicode="&#xc6;" horiz-adv-x="765" 
d="M729 -7h-356v283h-155l-161 -282h-21l329 598l-49 122h413v-23h-235v-394h144v-21h-144v-261h235v-22zM373 297v260l-148 -260h148z" />
    <glyph glyph-name="Ccedilla" unicode="&#xc7;" horiz-adv-x="542" 
d="M506 63q-35 -39 -76 -53.5t-99 -14.5q-93 0 -161.5 54t-100 135t-31.5 175q0 95 31.5 176t100 135t161.5 54q57 0 98.5 -15.5t76.5 -54.5l-19 -20q-32 37 -64.5 53.5t-78.5 16.5q-59 0 -102.5 -51t-63 -127.5t-19.5 -165.5q0 -90 20 -167t63 -128.5t102 -51.5
q80 0 143 71zM335 -86q0 -63 -126 -67l7 21q1 0 5.5 0.5t6.5 0.5t6 1l6 1.5l6 1.5t6 2.5t4.5 3.5t3.5 4t2 5t1 7q0 18 -30 18l-13 24l53 81h31l-33 -49q30 -4 47 -19t17 -36z" />
    <glyph glyph-name="Egrave" unicode="&#xc8;" horiz-adv-x="428" 
d="M392 0h-356v721h356v-23h-236v-394h145v-21h-145v-261h236v-22zM116 817q0 15 10.5 25t24.5 10q15 0 22 -6l141 -112h-30l-142 50q-26 7 -26 33z" />
    <glyph glyph-name="Eacute" unicode="&#xc9;" horiz-adv-x="428" 
d="M392 0h-356v721h356v-23h-236v-394h145v-21h-145v-261h236v-22zM318 816q0 -25 -26 -32l-141 -50h-30l140 111q10 7 23 7q14 0 24 -10.5t10 -25.5z" />
    <glyph glyph-name="Ecircumflex" unicode="&#xca;" horiz-adv-x="428" 
d="M392 0h-356v721h356v-23h-236v-394h145v-21h-145v-261h236v-22zM184 813h58l90 -79h-33l-86 34l-85 -34h-33z" />
    <glyph glyph-name="Edieresis" unicode="&#xcb;" horiz-adv-x="428" 
d="M392 0h-356v721h356v-23h-236v-394h145v-21h-145v-261h236v-22zM130 775q0 16 11 27t27 11t27 -11t11 -27t-11 -27t-27 -11t-27 11t-11 27zM221 773q0 16 11 27t27 11t27 -11t11 -27t-11 -27t-27 -11t-27 11t-11 27z" />
    <glyph glyph-name="Igrave" unicode="&#xcc;" horiz-adv-x="193" 
d="M157 0h-121v721h121v-721zM-1 817q0 15 10.5 25t24.5 10q15 0 22 -6l141 -112h-30l-142 50q-26 7 -26 33z" />
    <glyph glyph-name="Iacute" unicode="&#xcd;" horiz-adv-x="193" 
d="M157 0h-121v721h121v-721zM201 816q0 -25 -26 -32l-141 -50h-30l140 111q10 7 23 7q14 0 24 -10.5t10 -25.5z" />
    <glyph glyph-name="Icircumflex" unicode="&#xce;" horiz-adv-x="193" 
d="M157 0h-121v721h121v-721zM67 813h58l90 -79h-33l-86 34l-85 -34h-33z" />
    <glyph glyph-name="Idieresis" unicode="&#xcf;" horiz-adv-x="193" 
d="M157 0h-121v721h121v-721zM13 775q0 16 11 27t27 11t27 -11t11 -27t-11 -27t-27 -11t-27 11t-11 27zM104 773q0 16 11 27t27 11t27 -11t11 -27t-11 -27t-27 -11t-27 11t-11 27z" />
    <glyph glyph-name="Eth" unicode="&#xd0;" horiz-adv-x="689" 
d="M653 354q0 -62 -19 -124.5t-53.5 -116t-90 -86.5t-121.5 -33q-40 0 -120.5 -0.5t-121.5 -0.5v291h-91v23h91v407h242q87 0 154 -57t98.5 -137.5t31.5 -165.5zM514 354q0 342 -145 342h-122v-389h78v-23h-78v-270h122q145 0 145 340z" />
    <glyph glyph-name="Ntilde" unicode="&#xd1;" horiz-adv-x="487" 
d="M451 0h-23v42l-294 508v-550h-23v591l-75 130h139l253 -439v439h23v-721zM361 815l17 -8q-11 -33 -25.5 -50.5t-43.5 -17.5q-21 0 -52.5 14.5t-48.5 14.5q-14 0 -21.5 -1.5t-14.5 -8t-13 -20.5l-19 7q26 73 71 73q20 0 52 -16t51 -16q35 0 47 29z" />
    <glyph glyph-name="Ograve" unicode="&#xd2;" horiz-adv-x="641" 
d="M605 359q0 -63 -19 -125.5t-53.5 -115t-90 -85.5t-121.5 -33q-88 0 -155 56.5t-98.5 136.5t-31.5 166q0 85 31.5 166t98.5 138t155 57q66 0 121.5 -33.5t90 -86.5t53.5 -116t19 -125zM467 360q0 340 -146 340q-33 0 -59 -18t-41 -49.5t-25.5 -65.5t-14.5 -77t-5.5 -71
t-1.5 -59t1.5 -59t5.5 -71t14.5 -77t25.5 -65.5t41 -49.5t59 -18q146 0 146 340zM181 817q0 15 10.5 25t24.5 10q15 0 22 -6l141 -112h-30l-142 50q-26 7 -26 33z" />
    <glyph glyph-name="Oacute" unicode="&#xd3;" horiz-adv-x="641" 
d="M605 359q0 -63 -19 -125.5t-53.5 -115t-90 -85.5t-121.5 -33q-88 0 -155 56.5t-98.5 136.5t-31.5 166q0 85 31.5 166t98.5 138t155 57q66 0 121.5 -33.5t90 -86.5t53.5 -116t19 -125zM467 360q0 340 -146 340q-33 0 -59 -18t-41 -49.5t-25.5 -65.5t-14.5 -77t-5.5 -71
t-1.5 -59t1.5 -59t5.5 -71t14.5 -77t25.5 -65.5t41 -49.5t59 -18q146 0 146 340zM425 816q0 -25 -26 -32l-141 -50h-30l140 111q10 7 23 7q14 0 24 -10.5t10 -25.5z" />
    <glyph glyph-name="Ocircumflex" unicode="&#xd4;" horiz-adv-x="641" 
d="M605 359q0 -63 -19 -125.5t-53.5 -115t-90 -85.5t-121.5 -33q-88 0 -155 56.5t-98.5 136.5t-31.5 166q0 85 31.5 166t98.5 138t155 57q66 0 121.5 -33.5t90 -86.5t53.5 -116t19 -125zM467 360q0 340 -146 340q-33 0 -59 -18t-41 -49.5t-25.5 -65.5t-14.5 -77t-5.5 -71
t-1.5 -59t1.5 -59t5.5 -71t14.5 -77t25.5 -65.5t41 -49.5t59 -18q146 0 146 340zM291 813h58l90 -79h-33l-86 34l-85 -34h-33z" />
    <glyph glyph-name="Otilde" unicode="&#xd5;" horiz-adv-x="641" 
d="M605 359q0 -63 -19 -125.5t-53.5 -115t-90 -85.5t-121.5 -33q-88 0 -155 56.5t-98.5 136.5t-31.5 166q0 85 31.5 166t98.5 138t155 57q66 0 121.5 -33.5t90 -86.5t53.5 -116t19 -125zM467 360q0 340 -146 340q-33 0 -59 -18t-41 -49.5t-25.5 -65.5t-14.5 -77t-5.5 -71
t-1.5 -59t1.5 -59t5.5 -71t14.5 -77t25.5 -65.5t41 -49.5t59 -18q146 0 146 340zM422 815l17 -8q-11 -33 -25.5 -50.5t-43.5 -17.5q-21 0 -52.5 14.5t-48.5 14.5q-14 0 -21.5 -1.5t-14.5 -8t-13 -20.5l-19 7q26 73 71 73q20 0 52 -16t51 -16q35 0 47 29z" />
    <glyph glyph-name="Odieresis" unicode="&#xd6;" horiz-adv-x="641" 
d="M605 359q0 -63 -19 -125.5t-53.5 -115t-90 -85.5t-121.5 -33q-88 0 -155 56.5t-98.5 136.5t-31.5 166q0 85 31.5 166t98.5 138t155 57q66 0 121.5 -33.5t90 -86.5t53.5 -116t19 -125zM467 360q0 340 -146 340q-33 0 -59 -18t-41 -49.5t-25.5 -65.5t-14.5 -77t-5.5 -71
t-1.5 -59t1.5 -59t5.5 -71t14.5 -77t25.5 -65.5t41 -49.5t59 -18q146 0 146 340zM237 775q0 16 11 27t27 11t27 -11t11 -27t-11 -27t-27 -11t-27 11t-11 27zM328 773q0 16 11 27t27 11t27 -11t11 -27t-11 -27t-27 -11t-27 11t-11 27z" />
    <glyph glyph-name="multiply" unicode="&#xd7;" horiz-adv-x="423" 
d="M387 339l-123 -124l122 -123l-51 -52l-123 122l-124 -122l-51 52l121 123l-122 125l51 51l124 -122l125 122z" />
    <glyph glyph-name="Oslash" unicode="&#xd8;" horiz-adv-x="640" 
d="M604 358q0 -85 -31.5 -165t-98 -136.5t-154.5 -56.5q-73 0 -134 41l-58 -123l-22 10l60 127q-63 54 -96.5 135t-33.5 168q0 62 19 125t53.5 116t90 86.5t121.5 33.5q73 0 134 -44l59 125l21 -10l-60 -130q64 -52 97 -133t33 -169zM467 359q0 141 -28 226l-226 -485
q36 -81 107 -81q33 0 59 18t41 49.5t25.5 65.5t14.5 77t5.5 71t1.5 59zM427 616q-36 83 -107 83q-39 0 -68 -27t-43.5 -64t-23 -89t-10.5 -87t-2 -73q0 -143 28 -229z" />
    <glyph glyph-name="Ugrave" unicode="&#xd9;" horiz-adv-x="449" 
d="M413 180q0 -78 -55.5 -132.5t-133.5 -54.5q-79 0 -133.5 54t-54.5 133v540h122v-556q0 -47 34 -81.5t81 -34.5q48 0 82 34t34 82v556h24v-540zM127 817q0 15 10.5 25t24.5 10q15 0 22 -6l141 -112h-30l-142 50q-26 7 -26 33z" />
    <glyph glyph-name="Uacute" unicode="&#xda;" horiz-adv-x="449" 
d="M413 180q0 -78 -55.5 -132.5t-133.5 -54.5q-79 0 -133.5 54t-54.5 133v540h122v-556q0 -47 34 -81.5t81 -34.5q48 0 82 34t34 82v556h24v-540zM350 816q0 -25 -26 -32l-141 -50h-30l140 111q10 7 23 7q14 0 24 -10.5t10 -25.5z" />
    <glyph glyph-name="Ucircumflex" unicode="&#xdb;" horiz-adv-x="449" 
d="M413 180q0 -78 -55.5 -132.5t-133.5 -54.5q-79 0 -133.5 54t-54.5 133v540h122v-556q0 -47 34 -81.5t81 -34.5q48 0 82 34t34 82v556h24v-540zM216 813h58l90 -79h-33l-86 34l-85 -34h-33z" />
    <glyph glyph-name="Udieresis" unicode="&#xdc;" horiz-adv-x="449" 
d="M413 180q0 -78 -55.5 -132.5t-133.5 -54.5q-79 0 -133.5 54t-54.5 133v540h122v-556q0 -47 34 -81.5t81 -34.5q48 0 82 34t34 82v556h24v-540zM169 775q0 16 11 27t27 11t27 -11t11 -27t-11 -27t-27 -11t-27 11t-11 27zM260 773q0 16 11 27t27 11t27 -11t11 -27t-11 -27
t-27 -11t-27 11t-11 27z" />
    <glyph glyph-name="Yacute" unicode="&#xdd;" horiz-adv-x="505" 
d="M469 721l-176 -477v-244h-111v246l-146 475h124l133 -414l150 414h26zM392 816q0 -25 -26 -32l-141 -50h-30l140 111q10 7 23 7q14 0 24 -10.5t10 -25.5z" />
    <glyph glyph-name="Thorn" unicode="&#xde;" horiz-adv-x="494" 
d="M458 367q0 -93 -65 -157t-158 -64h-78v-147h-121v722h121v-134h78q92 0 157.5 -64t65.5 -156zM317 368q0 35 -5.5 67t-17.5 63.5t-35.5 50.5t-55.5 19h-46v-400h46q32 0 55.5 19t35.5 50.5t17.5 64t5.5 66.5z" />
    <glyph glyph-name="germandbls" unicode="&#xdf;" horiz-adv-x="437" 
d="M401 93q0 -47 -34.5 -70.5t-83.5 -23.5q-46 0 -79 28q10 10 17 14q46 -29 73 -29q29 0 29 32q0 17 -30.5 64t-61 104t-30.5 99q0 37 37 107t37 130q0 43 -18 92.5t-53 49.5q-11 0 -19.5 -9t-8.5 -20v-662h-93v272h-47v23h47v322q0 40 28.5 68.5t68.5 28.5q61 0 88 -49
t27 -115q0 -34 -4 -61q-2 -13 -11.5 -49t-9.5 -56q0 -44 33 -102.5t65.5 -110t32.5 -77.5z" />
    <glyph glyph-name="agrave" unicode="&#xe0;" horiz-adv-x="355" 
d="M319 0h-93v15q-32 -19 -68 -19q-50 0 -86 24t-36 71q0 46 35.5 70.5t83.5 24.5q41 0 71 -18q0 6 0.5 19t0.5 18q0 64 -42 64q-20 0 -54 -13l-8 15q26 16 80 16q48 0 82 -17t34 -53v-217zM226 36v109q-21 22 -44 22t-39 -22t-16 -54t16.5 -54.5t39.5 -22.5q22 0 43 22z
M80 383q0 15 10.5 25t24.5 10q15 0 22 -6l141 -112h-30l-142 50q-26 7 -26 33z" />
    <glyph glyph-name="aacute" unicode="&#xe1;" horiz-adv-x="355" 
d="M319 0h-93v15q-32 -19 -68 -19q-50 0 -86 24t-36 71q0 46 35.5 70.5t83.5 24.5q41 0 71 -18q0 6 0.5 19t0.5 18q0 64 -42 64q-20 0 -54 -13l-8 15q26 16 80 16q48 0 82 -17t34 -53v-217zM226 36v109q-21 22 -44 22t-39 -22t-16 -54t16.5 -54.5t39.5 -22.5q22 0 43 22z
M302 382q0 -25 -26 -32l-141 -50h-30l140 111q10 7 23 7q14 0 24 -10.5t10 -25.5z" />
    <glyph glyph-name="acircumflex" unicode="&#xe2;" horiz-adv-x="355" 
d="M319 0h-93v15q-32 -19 -68 -19q-50 0 -86 24t-36 71q0 46 35.5 70.5t83.5 24.5q41 0 71 -18q0 6 0.5 19t0.5 18q0 64 -42 64q-20 0 -54 -13l-8 15q26 16 80 16q48 0 82 -17t34 -53v-217zM226 36v109q-21 22 -44 22t-39 -22t-16 -54t16.5 -54.5t39.5 -22.5q22 0 43 22z
M148 379h58l90 -79h-33l-86 34l-85 -34h-33z" />
    <glyph glyph-name="atilde" unicode="&#xe3;" horiz-adv-x="355" 
d="M319 0h-93v15q-32 -19 -68 -19q-50 0 -86 24t-36 71q0 46 35.5 70.5t83.5 24.5q41 0 71 -18q0 6 0.5 19t0.5 18q0 64 -42 64q-20 0 -54 -13l-8 15q26 16 80 16q48 0 82 -17t34 -53v-217zM226 36v109q-21 22 -44 22t-39 -22t-16 -54t16.5 -54.5t39.5 -22.5q22 0 43 22z
M281 381l17 -8q-11 -33 -25.5 -50.5t-43.5 -17.5q-21 0 -52.5 14.5t-48.5 14.5q-14 0 -21.5 -1.5t-14.5 -8t-13 -20.5l-19 7q26 73 71 73q20 0 52 -16t51 -16q35 0 47 29z" />
    <glyph glyph-name="adieresis" unicode="&#xe4;" horiz-adv-x="355" 
d="M319 0h-93v15q-32 -19 -68 -19q-50 0 -86 24t-36 71q0 46 35.5 70.5t83.5 24.5q41 0 71 -18q0 6 0.5 19t0.5 18q0 64 -42 64q-20 0 -54 -13l-8 15q26 16 80 16q48 0 82 -17t34 -53v-217zM226 36v109q-21 22 -44 22t-39 -22t-16 -54t16.5 -54.5t39.5 -22.5q22 0 43 22z
M94 341q0 16 11 27t27 11t27 -11t11 -27t-11 -27t-27 -11t-27 11t-11 27zM185 339q0 16 11 27t27 11t27 -11t11 -27t-11 -27t-27 -11t-27 11t-11 27z" />
    <glyph glyph-name="aring" unicode="&#xe5;" horiz-adv-x="355" 
d="M319 0h-93v15q-32 -19 -68 -19q-50 0 -86 24t-36 71q0 46 35.5 70.5t83.5 24.5q41 0 71 -18q0 6 0.5 19t0.5 18q0 64 -42 64q-20 0 -54 -13l-8 15q26 16 80 16q48 0 82 -17t34 -53v-217zM226 36v109q-21 22 -44 22t-39 -22t-16 -54t16.5 -54.5t39.5 -22.5q22 0 43 22z
M255 359q0 -24 -17 -41.5t-42 -17.5t-42.5 17t-17.5 42t17.5 42.5t42.5 17.5q24 0 41.5 -17.5t17.5 -42.5zM232 359q0 15 -11 26.5t-25 11.5q-16 0 -26.5 -11t-10.5 -27t10.5 -26.5t26.5 -10.5q15 0 25.5 11t10.5 26z" />
    <glyph glyph-name="ae" unicode="&#xe6;" horiz-adv-x="584" 
d="M548 144h-227q0 -53 30 -89t70 -36q52 0 83 47h22q-38 -67 -123 -67q-39 0 -84 13v-13h-94v21q-30 -20 -71 -20q-45 0 -81.5 26t-36.5 70t36.5 70.5t81.5 26.5q41 0 71 -20v67q0 30 -48 30q-29 0 -47 -9l-8 13q19 13 67 13q60 0 98 -26q42 26 96 26q65 0 115 -40t50 -103
zM225 41v109q-23 23 -48 23t-37.5 -22t-12.5 -56q0 -33 12.5 -55t37.5 -22q18 0 48 23zM446 168q-2 103 -61 103q-60 0 -64 -103h125z" />
    <glyph glyph-name="ccedilla" unicode="&#xe7;" horiz-adv-x="346" 
d="M310 244l-14 -16q-43 44 -82 44q-34 0 -55.5 -33t-21.5 -91q0 -60 23 -94.5t59 -34.5t74 35l15 -14q-38 -41 -105 -41q-65 0 -116 40.5t-51 103.5q0 64 51 105t116 41q68 0 107 -45zM214 -68q0 -52 -102 -54l5 17q38 3 38 22q0 14 -24 14l-10 20l42 66h26l-27 -40
q24 -3 38 -15.5t14 -29.5z" />
    <glyph glyph-name="egrave" unicode="&#xe8;" horiz-adv-x="405" 
d="M369 146h-229q0 -57 32 -90t74 -33q55 0 81 45h23q-43 -71 -140 -71q-69 0 -121.5 40t-52.5 108q0 67 49.5 105.5t119.5 38.5q68 0 116 -38t48 -105zM266 170q-1 24 -2 37t-6.5 31.5t-19 27.5t-34.5 9q-22 0 -35.5 -9t-19 -27.5t-7 -32t-2.5 -36.5h126zM77 383
q0 15 10.5 25t24.5 10q15 0 22 -6l141 -112h-30l-142 50q-26 7 -26 33z" />
    <glyph glyph-name="eacute" unicode="&#xe9;" horiz-adv-x="405" 
d="M369 146h-229q0 -57 32 -90t74 -33q55 0 81 45h23q-43 -71 -140 -71q-69 0 -121.5 40t-52.5 108q0 67 49.5 105.5t119.5 38.5q68 0 116 -38t48 -105zM266 170q-1 24 -2 37t-6.5 31.5t-19 27.5t-34.5 9q-22 0 -35.5 -9t-19 -27.5t-7 -32t-2.5 -36.5h126zM330 382
q0 -25 -26 -32l-141 -50h-30l140 111q10 7 23 7q14 0 24 -10.5t10 -25.5z" />
    <glyph glyph-name="ecircumflex" unicode="&#xea;" horiz-adv-x="405" 
d="M369 146h-229q0 -57 32 -90t74 -33q55 0 81 45h23q-43 -71 -140 -71q-69 0 -121.5 40t-52.5 108q0 67 49.5 105.5t119.5 38.5q68 0 116 -38t48 -105zM266 170q-1 24 -2 37t-6.5 31.5t-19 27.5t-34.5 9q-22 0 -35.5 -9t-19 -27.5t-7 -32t-2.5 -36.5h126zM173 379h58
l90 -79h-33l-86 34l-85 -34h-33z" />
    <glyph glyph-name="edieresis" unicode="&#xeb;" horiz-adv-x="405" 
d="M372 146h-229q0 -57 32 -90t74 -33q55 0 81 45h23q-43 -71 -140 -71q-69 0 -121.5 40t-52.5 108q0 67 49.5 105.5t119.5 38.5q68 0 116 -38t48 -105zM269 170q-1 24 -2 37t-6.5 31.5t-19 27.5t-34.5 9q-22 0 -35.5 -9t-19 -27.5t-7 -32t-2.5 -36.5h126zM119 341
q0 16 11 27t27 11t27 -11t11 -27t-11 -27t-27 -11t-27 11t-11 27zM210 339q0 16 11 27t27 11t27 -11t11 -27t-11 -27t-27 -11t-27 11t-11 27z" />
    <glyph glyph-name="igrave" unicode="&#xec;" horiz-adv-x="165" 
d="M129 -1h-93v288h93v-288zM-59 383q0 15 10.5 25t24.5 10q15 0 22 -6l141 -112h-30l-142 50q-26 7 -26 33z" />
    <glyph glyph-name="iacute" unicode="&#xed;" horiz-adv-x="165" 
d="M129 -1h-93v288h93v-288zM247 382q0 -25 -26 -32l-141 -50h-30l140 111q10 7 23 7q14 0 24 -10.5t10 -25.5z" />
    <glyph glyph-name="icircumflex" unicode="&#xee;" horiz-adv-x="165" 
d="M129 -1h-93v288h93v-288zM53 379h58l90 -79h-33l-86 34l-85 -34h-33z" />
    <glyph glyph-name="idieresis" unicode="&#xef;" horiz-adv-x="165" 
d="M129 -1h-93v288h93v-288zM-1 341q0 16 11 27t27 11t27 -11t11 -27t-11 -27t-27 -11t-27 11t-11 27zM90 339q0 16 11 27t27 11t27 -11t11 -27t-11 -27t-27 -11t-27 11t-11 27z" />
    <glyph glyph-name="eth" unicode="&#xf0;" horiz-adv-x="404" 
d="M368 155q0 -67 -49.5 -111t-117.5 -44q-64 0 -114.5 40t-50.5 103t49 103t113 40q25 0 45 -4l-44 132l-70 -18l-5 23l69 18l-27 94q-3 9 -12 15t-17 6q-17 0 -25 -20l-1 -3l-19 9q12 20 34.5 32.5t45.5 12.5q22 0 39 -8t27 -16.5t20 -30t13 -31t11 -36.5l45 13l7 -24
l-46 -11l73 -237q7 -21 7 -47zM264 144q0 30 -1.5 49t-7.5 39t-19 29.5t-34 9.5q-18 0 -30.5 -8t-19 -19t-10 -30t-4 -33.5t-0.5 -38.5q0 -125 64 -125q21 0 35 12.5t19 35.5t6.5 39t1.5 40z" />
    <glyph glyph-name="ntilde" unicode="&#xf1;" 
d="M326 0h-91v219q0 25 -12.5 38t-31.5 13q-23 0 -42 -17t-19 -41v-213h-94v288h94v-29q25 37 85 37q44 0 77.5 -22.5t33.5 -60.5v-212zM291 387l17 -8q-11 -33 -25.5 -50.5t-43.5 -17.5q-21 0 -52.5 14.5t-48.5 14.5q-14 0 -21.5 -1.5t-14.5 -8t-13 -20.5l-19 7
q26 73 71 73q20 0 52 -16t51 -16q35 0 47 29z" />
    <glyph glyph-name="ograve" unicode="&#xf2;" horiz-adv-x="412" 
d="M376 142q0 -63 -51.5 -104.5t-117.5 -41.5t-118.5 41.5t-52.5 104.5q0 69 51 108.5t120 39.5t119 -39t50 -109zM270 143q0 58 -21 94t-48 36q-25 0 -42.5 -31t-17.5 -84q0 -61 22.5 -100.5t49.5 -39.5q23 0 40 33.5t17 91.5zM86 383q0 15 10.5 25t24.5 10q15 0 22 -6
l141 -112h-30l-142 50q-26 7 -26 33z" />
    <glyph glyph-name="oacute" unicode="&#xf3;" horiz-adv-x="412" 
d="M376 142q0 -63 -51.5 -104.5t-117.5 -41.5t-118.5 41.5t-52.5 104.5q0 69 51 108.5t120 39.5t119 -39t50 -109zM270 143q0 58 -21 94t-48 36q-25 0 -42.5 -31t-17.5 -84q0 -61 22.5 -100.5t49.5 -39.5q23 0 40 33.5t17 91.5zM325 382q0 -25 -26 -32l-141 -50h-30l140 111
q10 7 23 7q14 0 24 -10.5t10 -25.5z" />
    <glyph glyph-name="ocircumflex" unicode="&#xf4;" horiz-adv-x="412" 
d="M376 142q0 -63 -51.5 -104.5t-117.5 -41.5t-118.5 41.5t-52.5 104.5q0 69 51 108.5t120 39.5t119 -39t50 -109zM270 143q0 58 -21 94t-48 36q-25 0 -42.5 -31t-17.5 -84q0 -61 22.5 -100.5t49.5 -39.5q23 0 40 33.5t17 91.5zM176 379h58l90 -79h-33l-86 34l-85 -34h-33z
" />
    <glyph glyph-name="otilde" unicode="&#xf5;" horiz-adv-x="412" 
d="M376 142q0 -63 -51.5 -104.5t-117.5 -41.5t-118.5 41.5t-52.5 104.5q0 69 51 108.5t120 39.5t119 -39t50 -109zM270 143q0 58 -21 94t-48 36q-25 0 -42.5 -31t-17.5 -84q0 -61 22.5 -100.5t49.5 -39.5q23 0 40 33.5t17 91.5zM314 381l17 -8q-11 -33 -25.5 -50.5
t-43.5 -17.5q-21 0 -52.5 14.5t-48.5 14.5q-14 0 -21.5 -1.5t-14.5 -8t-13 -20.5l-19 7q26 73 71 73q20 0 52 -16t51 -16q35 0 47 29z" />
    <glyph glyph-name="odieresis" unicode="&#xf6;" horiz-adv-x="412" 
d="M376 142q0 -63 -51.5 -104.5t-117.5 -41.5t-118.5 41.5t-52.5 104.5q0 69 51 108.5t120 39.5t119 -39t50 -109zM270 143q0 58 -21 94t-48 36q-25 0 -42.5 -31t-17.5 -84q0 -61 22.5 -100.5t49.5 -39.5q23 0 40 33.5t17 91.5zM122 341q0 16 11 27t27 11t27 -11t11 -27
t-11 -27t-27 -11t-27 11t-11 27zM213 339q0 16 11 27t27 11t27 -11t11 -27t-11 -27t-27 -11t-27 11t-11 27z" />
    <glyph glyph-name="divide" unicode="&#xf7;" horiz-adv-x="477" 
d="M441 337h-405v76h405v-76zM199 482q0 20 14 34.5t34 14.5t34.5 -14.5t14.5 -34.5t-14.5 -34t-34.5 -14t-34 14t-14 34zM197 262q0 20 14 34.5t34 14.5t34.5 -14.5t14.5 -34.5t-14.5 -34t-34.5 -14t-34 14t-14 34z" />
    <glyph glyph-name="oslash" unicode="&#xf8;" horiz-adv-x="420" 
d="M83 0h-35l39 38q-51 41 -51 104q0 69 51 108.5t120 39.5q63 0 110 -33l32 30h35l-48 -46q40 -38 40 -99q0 -63 -51.5 -104.5t-117.5 -41.5q-53 0 -99 27zM141 158q0 -30 7 -62l114 108q-9 32 -26 50.5t-35 18.5q-25 0 -42.5 -31t-17.5 -84zM270 143q0 13 -2 33l-111 -106
q22 -52 56 -52q23 0 40 33.5t17 91.5z" />
    <glyph glyph-name="ugrave" unicode="&#xf9;" 
d="M326 0h-93v29q-34 -37 -96 -37q-42 0 -71.5 21.5t-29.5 61.5v212h91v-219q0 -26 13 -39.5t32 -13.5q23 0 42 16.5t19 42.5v213h93v-287zM59 383q0 15 10.5 25t24.5 10q15 0 22 -6l141 -112h-30l-142 50q-26 7 -26 33z" />
    <glyph glyph-name="uacute" unicode="&#xfa;" 
d="M326 0h-93v29q-34 -37 -96 -37q-42 0 -71.5 21.5t-29.5 61.5v212h91v-219q0 -26 13 -39.5t32 -13.5q23 0 42 16.5t19 42.5v213h93v-287zM309 382q0 -25 -26 -32l-141 -50h-30l140 111q10 7 23 7q14 0 24 -10.5t10 -25.5z" />
    <glyph glyph-name="ucircumflex" unicode="&#xfb;" 
d="M326 0h-93v29q-34 -37 -96 -37q-42 0 -71.5 21.5t-29.5 61.5v212h91v-219q0 -26 13 -39.5t32 -13.5q23 0 42 16.5t19 42.5v213h93v-287zM151 379h58l90 -79h-33l-86 34l-85 -34h-33z" />
    <glyph glyph-name="udieresis" unicode="&#xfc;" 
d="M326 0h-93v29q-34 -37 -96 -37q-42 0 -71.5 21.5t-29.5 61.5v212h91v-219q0 -26 13 -39.5t32 -13.5q23 0 42 16.5t19 42.5v213h93v-287zM97 341q0 16 11 27t27 11t27 -11t11 -27t-11 -27t-27 -11t-27 11t-11 27zM188 339q0 16 11 27t27 11t27 -11t11 -27t-11 -27t-27 -11
t-27 11t-11 27z" />
    <glyph glyph-name="yacute" unicode="&#xfd;" horiz-adv-x="375" 
d="M339 287l-225 -461l-22 10l84 172l-140 279h105l86 -170l86 170h26zM313 382q0 -25 -26 -32l-141 -50h-30l140 111q10 7 23 7q14 0 24 -10.5t10 -25.5z" />
    <glyph glyph-name="thorn" unicode="&#xfe;" horiz-adv-x="398" 
d="M200 288q73 0 115 -46.5t42 -107.5q0 -55 -36.5 -94.5t-103.5 -39.5q-54 0 -88 35v-197h-93v871h93v-456q31 35 71 35zM202 18q27 0 42.5 39t15.5 92q0 51 -15 87t-43 36q-39 0 -56 -29t-17 -71v-33q0 -121 73 -121z" />
    <glyph glyph-name="ydieresis" unicode="&#xff;" horiz-adv-x="375" 
d="M339 287l-225 -461l-22 10l84 172l-140 279h105l86 -170l86 170h26zM124 341q0 16 11 27t27 11t27 -11t11 -27t-11 -27t-27 -11t-27 11t-11 27zM215 339q0 16 11 27t27 11t27 -11t11 -27t-11 -27t-27 -11t-27 11t-11 27z" />
    <glyph glyph-name="dotlessi" unicode="&#x131;" horiz-adv-x="165" 
d="M129 -1h-93v288h93v-288z" />
    <glyph glyph-name="OE" unicode="&#x152;" horiz-adv-x="790" 
d="M754 -7h-356v18q-35 -16 -78 -16q-66 0 -121.5 33t-90 85.5t-53.5 115t-19 125.5t19 125.5t53.5 115.5t90 86t121.5 33q45 0 78 -15v15h356v-23h-235v-394h144v-21h-144v-261h235v-22zM398 110v491q0 40 -20 67.5t-58 27.5q-33 0 -59 -18t-41 -50t-25.5 -66t-14.5 -77
t-5.5 -71t-1.5 -59t1.5 -59t5.5 -71t14.5 -77t25.5 -66t41 -50t59 -18q78 0 78 96z" />
    <glyph glyph-name="oe" unicode="&#x153;" horiz-adv-x="611" 
d="M529 66h23q-47 -66 -141 -66q-57 0 -104 33q-47 -33 -106 -33q-64 0 -114.5 40t-50.5 103t50.5 103.5t114.5 40.5q58 0 104 -34q43 34 106 34q65 0 114.5 -40t49.5 -103h-227q0 -51 32 -87t73 -36q45 0 76 45zM202 17q31 0 48.5 37.5t17.5 88.5q0 52 -17.5 90t-49.5 38
q-30 0 -46.5 -36t-16.5 -87q0 -53 17 -92t47 -39zM412 271q-21 0 -34.5 -8.5t-19.5 -26.5t-7.5 -31t-2.5 -37h125q-2 103 -61 103z" />
    <glyph glyph-name="Scaron" unicode="&#x160;" horiz-adv-x="450" 
d="M414 197q0 -83 -57 -141t-140 -58q-57 0 -108 18q-3 1 -21 9t-28 10l20 43q24 -29 65 -45.5t81 -16.5q48 0 74 24.5t26 71.5q0 49 -30 90.5t-72.5 72.5t-85 63.5t-72.5 77t-30 97.5q0 91 65 151t157 60q71 0 129 -40l-28 -32q-38 52 -118 52q-54 0 -93 -25.5t-39 -76.5
q0 -34 17 -64t43.5 -53.5t59 -46.5t65.5 -47t59.5 -51t43.5 -63.5t17 -79.5zM154 813h15l66 -40l66 40h15l-64 -79h-34z" />
    <glyph glyph-name="scaron" unicode="&#x161;" horiz-adv-x="280" 
d="M244 92q0 -45 -34 -70t-80 -25q-51 0 -86 29q2 2 5.5 6t7.5 6q44 -28 78 -28q29 0 29 31q0 18 -20 37t-44 33.5t-44 38t-20 49.5q0 41 32.5 66t76.5 25q51 0 83 -34l-15 -14q-9 17 -30 25.5t-42 8.5q-40 0 -40 -34q0 -16 22.5 -32.5t49 -30t49 -37t22.5 -50.5zM70 379h15
l66 -40l66 40h15l-64 -79h-34z" />
    <glyph glyph-name="Ydieresis" unicode="&#x178;" horiz-adv-x="505" 
d="M469 721l-176 -477v-244h-111v246l-146 475h124l133 -414l150 414h26zM186 764q0 16 11 27t27 11t27 -11t11 -27t-11 -27t-27 -11t-27 11t-11 27zM277 762q0 16 11 27t27 11t27 -11t11 -27t-11 -27t-27 -11t-27 11t-11 27z" />
    <glyph glyph-name="Zcaron" unicode="&#x17d;" horiz-adv-x="464" 
d="M428 0h-392v21l247 677h-224v23h353v-20l-249 -677h265v-24zM178 813h15l66 -40l66 40h15l-64 -79h-34z" />
    <glyph glyph-name="zcaron" unicode="&#x17e;" horiz-adv-x="344" 
d="M308 287l-152 -265h140v-22h-260l151 264h-135v23h256zM101 379h15l66 -40l66 40h15l-64 -79h-34z" />
    <glyph glyph-name="florin" unicode="&#x192;" horiz-adv-x="818" 
d="M445 406h18v-14q8 2 15 2q23 0 42 -10t22 -29q19 8 49 8q33 0 56 -15.5t23 -45.5q0 -14 -9 -28q-3 -5 -8 -5q-10 0 -10 9q0 4 2 6q6 9 6 18q0 18 -15 30t-36 12q-42 0 -70 -20.5t-28 -40.5q0 -29 40 -29q5 0 17.5 2.5t13.5 2.5q10 0 10 -10q-3 -33 -32 -54
q-29 -22 -64 -22q-49 0 -78 34q-29 -34 -77 -34q-35 0 -65 22q-28 21 -32 54q0 3 4.5 6.5t7.5 3.5q17 -5 30 -5q41 0 41 29q0 20 -29 40.5t-72 20.5q-21 0 -35 -12t-14 -30q0 -9 6 -18q2 -4 2 -6q0 -9 -10 -9q-5 0 -8 5q-9 12 -9 28q0 30 23 45.5t56 15.5q28 0 49 -8
q3 19 22 29t40 10q7 0 17 -2q-1 6 -1 17q0 24 5 42q5 17 11 17q7 0 12 -17l4 -24l-18 -21h18q0 -18 -2 -26q17 -11 17 -29q0 -26 -28 -38q-29 -14 -29 -24q0 -16 20.5 -24t43.5 -8t43.5 8t20.5 24q0 12 -28 24t-28 38q0 18 17 29q-3 14 -3 29q0 24 5 42q5 17 11 17
q7 0 12 -17l4 -24zM479 382q-22 0 -36 -11q-14 -8 -14 -20q0 -13 14 -22q15 -10 36 -10q22 0 37 10q13 10 13 22t-13 20q-14 11 -37 11zM339 382q-22 0 -36 -11q-14 -9 -14 -20t14 -22q15 -10 36 -10q22 0 37 10q14 11 14 22t-14 20q-14 11 -37 11zM475 258q-24 -20 -66 -20
t-65 20q-29 -23 -67 -23q-6 0 -20 2q9 -21 30 -33t45 -12q47 0 69 36q3 5 8 5q6 0 9 -5q20 -36 69 -36q23 0 44 12t30 33q-14 -2 -19 -2q-38 0 -67 23zM336 524q-116 -26 -116 -104q0 -4 1 -13t1 -15q0 -10 -10 -10q-7 0 -8 8q-3 16 -3 30q0 66 47 116q-41 25 -49 67
q0 9 9 9q8 0 9 -8q7 -29 33.5 -46.5t57.5 -17.5q29 0 54 15.5t34 42.5q3 6 10 6q8 0 9 -6q9 -27 34 -42.5t55 -15.5t57 17.5t33 46.5q1 8 9 8q9 0 9 -12q-7 -37 -45 -61q50 -50 50 -119q0 -8 -2 -30q-3 -8 -10 -8q-9 0 -9 12q0 1 1.5 11t1.5 15q0 83 -102 102q-67 12 -91 50
q-23 -36 -70 -48zM698 104q-51 -54 -124 -54q-37 -20 -81 -20h-11q-34 -17 -73 -17t-73 17h-10q-44 0 -82 20q-74 0 -123 54q-85 59 -85 137q0 60 53 111q-25 45 -25 94q0 105 103 180q100 74 242 74t243 -74q102 -74 102 -180q0 -48 -24 -94q52 -52 52 -111q0 -79 -84 -137
zM606 73q46 9 78 43.5t32 81.5q0 40 -25 71q0 1 -1 3t-1 3q0 10 9 10q5 0 8 -4q29 -37 29 -83q0 -16 -6 -42q34 41 34 85q0 55 -51 102q-3 1 -3 7l1 2v2q25 44 25 92q0 97 -95 166q-96 70 -231 70q-136 0 -231 -71q-95 -69 -95 -165q0 -48 25 -92q1 0 1 -3q0 -6 -2 -8
q-52 -48 -52 -102q0 -43 35 -85q-6 20 -6 42q0 46 28 83q3 4 9 4q9 0 9 -10q0 -1 -3 -6q-24 -30 -24 -71q0 -47 31.5 -81.5t77.5 -43.5q-47 44 -47 104q0 48 32 86q5 5 8 5q9 0 9 -9q0 -3 -2 -7q-28 -34 -28 -75q0 -49 35.5 -84.5t84.5 -42.5q-55 43 -55 110q0 10 9 10
q10 0 10 -10q0 -54 43 -91t98 -37q56 0 99 36.5t43 91.5q0 10 10 10q9 0 9 -10q0 -67 -55 -110q49 7 84 42.5t35 84.5q0 40 -27 75q-2 2 -2 7q0 9 9 9q4 0 7 -5q32 -37 32 -86q0 -60 -47 -104z" />
    <glyph glyph-name="circumflex" unicode="&#x2c6;" horiz-adv-x="341" 
d="M141 379h58l90 -79h-33l-86 34l-85 -34h-33z" />
    <glyph glyph-name="caron" unicode="&#x2c7;" horiz-adv-x="341" 
d="M100 379h15l66 -40l66 40h15l-64 -79h-34z" />
    <glyph glyph-name="ring" unicode="&#x2da;" horiz-adv-x="227" 
d="M191 377q0 -32 -22.5 -54.5t-54.5 -22.5t-55 22.5t-23 54.5t23 54.5t55 22.5t54.5 -23t22.5 -54zM162 377q0 20 -14.5 34.5t-33.5 14.5q-20 0 -34 -14t-14 -35q0 -20 14 -34t34 -14t34 14t14 34z" />
    <glyph glyph-name="tilde" unicode="&#x2dc;" horiz-adv-x="344" 
d="M273 381l17 -8q-11 -33 -25.5 -50.5t-43.5 -17.5q-21 0 -52.5 14.5t-48.5 14.5q-14 0 -21.5 -1.5t-14.5 -8t-13 -20.5l-19 7q26 73 71 73q20 0 52 -16t51 -16q35 0 47 29z" />
    <glyph glyph-name="endash" unicode="&#x2013;" horiz-adv-x="477" 
d="M441 337h-405v76h405v-76z" />
    <glyph glyph-name="emdash" unicode="&#x2014;" horiz-adv-x="852" 
d="M816 337h-780v76h780v-76z" />
    <glyph glyph-name="quoteleft" unicode="&#x2018;" horiz-adv-x="171" 
d="M105 721l11 -18q-15 -10 -28.5 -32.5t-17.5 -41.5q8 3 16 3q20 0 34.5 -14.5t14.5 -34.5t-14.5 -34.5t-34.5 -14.5q-24 0 -37 17.5t-13 44.5q0 36 20.5 73t48.5 52z" />
    <glyph glyph-name="quoteright" unicode="&#x2019;" horiz-adv-x="171" 
d="M66 534l-11 18q15 10 28.5 32.5t17.5 41.5q-7 -3 -16 -3q-20 0 -34.5 14.5t-14.5 34.5t14.5 34.5t34.5 14.5q24 0 37 -17.5t13 -44.5q0 -36 -20.5 -73t-48.5 -52z" />
    <glyph glyph-name="quotesinglbase" unicode="&#x201a;" horiz-adv-x="171" 
d="M66 -89l-11 18q15 10 28.5 32.5t17.5 41.5q-7 -3 -16 -3q-20 0 -34.5 14.5t-14.5 34.5t14.5 34.5t34.5 14.5q24 0 37 -17.5t13 -44.5q0 -36 -20.5 -73t-48.5 -52z" />
    <glyph glyph-name="quotedblleft" unicode="&#x201c;" horiz-adv-x="283" 
d="M217 721l11 -18q-15 -10 -28.5 -32.5t-17.5 -41.5q7 3 16 3q20 0 34.5 -14.5t14.5 -34.5t-14.5 -34.5t-34.5 -14.5q-24 0 -37 17.5t-13 44.5q0 36 20.5 73t48.5 52zM105 721l11 -18q-15 -10 -28.5 -32.5t-17.5 -41.5q8 3 16 3q20 0 34.5 -14.5t14.5 -34.5t-14.5 -34.5
t-34.5 -14.5q-24 0 -37 17.5t-13 44.5q0 36 20.5 73t48.5 52z" />
    <glyph glyph-name="quotedblright" unicode="&#x201d;" horiz-adv-x="283" 
d="M66 534l-11 18q15 10 28.5 32.5t17.5 41.5q-7 -3 -16 -3q-20 0 -34.5 14.5t-14.5 34.5t14.5 34.5t34.5 14.5q24 0 37 -17.5t13 -44.5q0 -36 -20.5 -73t-48.5 -52zM178 534l-11 18q15 10 28.5 32.5t17.5 41.5q-7 -3 -16 -3q-20 0 -34.5 14.5t-14.5 34.5t14.5 34.5
t34.5 14.5q24 0 37 -17.5t13 -44.5q0 -36 -20.5 -73t-48.5 -52z" />
    <glyph glyph-name="quotedblbase" unicode="&#x201e;" horiz-adv-x="289" 
d="M66 -89l-11 18q15 10 28.5 32.5t17.5 41.5q-7 -3 -16 -3q-20 0 -34.5 14.5t-14.5 34.5t14.5 34.5t34.5 14.5q24 0 37 -17.5t13 -44.5q0 -36 -20.5 -73t-48.5 -52zM184 -89l-11 18q15 10 28.5 32.5t17.5 41.5q-7 -3 -16 -3q-20 0 -34.5 14.5t-14.5 34.5t14.5 34.5
t34.5 14.5q24 0 37 -17.5t13 -44.5q0 -36 -20.5 -73t-48.5 -52z" />
    <glyph glyph-name="dagger" unicode="&#x2020;" horiz-adv-x="675" 
d="M432 -58q-57 -11 -95 -52q-38 41 -95 52q74 235 77 465q-106 -9 -183 -83q-31 70 -100 101q69 33 100 102q77 -73 182 -84q-7 119 -91 207q75 32 110 108q37 -77 110 -108q-84 -88 -91 -207q105 11 182 84q31 -69 101 -102q-70 -31 -101 -101q-77 74 -183 83
q3 -230 77 -465z" />
    <glyph glyph-name="daggerdbl" unicode="&#x2021;" horiz-adv-x="647" 
d="M414 310q-36 -32 -51.5 -55t-22.5 -65q103 11 174 79q31 -65 97 -96q-68 -30 -97 -95q-73 70 -173 79q7 -113 87 -194q-73 -33 -105 -103q-32 70 -105 103q79 81 88 194q-101 -9 -174 -79q-31 66 -96 95q65 31 96 96q71 -68 174 -79q-7 42 -22.5 65t-51.5 55
q36 32 51.5 55t22.5 65q-103 -11 -174 -79q-31 65 -96 96q65 29 96 95q73 -70 174 -79q-9 113 -88 194q73 33 105 103q32 -70 105 -103q-80 -81 -87 -194q100 9 173 79q29 -65 97 -95q-66 -31 -97 -96q-71 68 -174 79q7 -42 22.5 -65t51.5 -55z" />
    <glyph glyph-name="bullet" unicode="&#x2022;" horiz-adv-x="328" 
d="M36 392q0 53 37.5 90.5t90.5 37.5t90.5 -37.5t37.5 -90.5t-37.5 -90.5t-90.5 -37.5t-90.5 37.5t-37.5 90.5z" />
    <glyph glyph-name="perthousand" unicode="&#x2030;" horiz-adv-x="658" 
d="M537 117q0 -50 -36 -85.5t-86 -35.5q-51 0 -86.5 35t-35.5 86q0 50 36 86.5t86 36.5t86 -36.5t36 -86.5zM467 117q0 21 -15.5 36.5t-36.5 15.5q-22 0 -37 -15t-15 -37t15 -37t37 -15t37 15t15 37zM463 764l-271 -768h-77l270 768h78zM281 643q0 -50 -36 -86t-86 -36
q-51 0 -87 35.5t-36 86.5q0 50 36.5 86t86.5 36t86 -36t36 -86zM210 643q0 21 -15 36.5t-36 15.5q-22 0 -37 -15t-15 -37t15 -37t37 -15t36.5 15t14.5 37zM622 378q0 -50 -36 -85.5t-86 -35.5q-51 0 -86.5 35t-35.5 86q0 50 36 86.5t86 36.5t86 -36.5t36 -86.5zM552 378
q0 21 -15.5 36.5t-36.5 15.5q-22 0 -37 -15t-15 -37t15 -37t37 -15t37 15t15 37z" />
    <glyph glyph-name="guilsinglleft" unicode="&#x2039;" horiz-adv-x="245" 
d="M209 197l-173 177l173 170v-101l-72 -71l72 -73v-102z" />
    <glyph glyph-name="guilsinglright" unicode="&#x203a;" horiz-adv-x="246" 
d="M210 374l-174 -176v101l72 73l-72 71v101z" />
    <glyph glyph-name="Euro" unicode="&#x20ac;" horiz-adv-x="569" 
d="M533 72q-63 -69 -175 -69q-79 0 -145 47.5t-105 122.5h-69l14 23h44q-11 24 -19 52h-42l13 23h23q-10 62 -10 93q0 87 34 168t103.5 136.5t158.5 55.5q112 0 175 -69l-20 -21q-33 37 -64.5 53.5t-77.5 16.5q-52 0 -89 -33t-55.5 -87.5t-26.5 -108.5t-8 -111q0 -41 5 -93
h256l-13 -23h-240q7 -38 10 -52h200l-14 -23h-180q19 -64 57.5 -107.5t97.5 -43.5q47 0 79.5 16t64.5 52z" />
    <glyph glyph-name="trademark" unicode="&#x2122;" horiz-adv-x="432" 
d="M187 708h-54v-247h-43v247h-54v8h151v-8zM396 459h-43v202l-54 -173h-8l-56 144v-173h-7v194l-24 59h46l61 -160q39 124 50 161h35v-254z" />
    <glyph glyph-name="minus" unicode="&#x2212;" horiz-adv-x="477" 
d="M441 337h-405v76h405v-76z" />
    </font>
</defs>
</svg>
